<?xml version="1.0" encoding="UTF-8" standalone="no"?>
<!DOCTYPE svg PUBLIC "-//W3C//DTD SVG 1.1//EN" "http://www.w3.org/Graphics/SVG/1.1/DTD/svg11.dtd">
<svg width="100%" height="100%" viewBox="0 0 3300 2550" version="1.1" xmlns="http://www.w3.org/2000/svg" xmlns:xlink="http://www.w3.org/1999/xlink" xml:space="preserve" xmlns:serif="http://www.serif.com/" style="fill-rule:evenodd;clip-rule:evenodd;stroke-linejoin:round;stroke-miterlimit:2;">
    <g transform="matrix(2.801428,0,0,2.801428,171.453342,-191.25)">
        <g transform="matrix(-0.985328,0.170674,0.170674,0.985328,934.269965,-50.154011)">
            <path d="M204.742,517.252C204.214,516.751 201.268,451.485 205.19,449.682C221.335,442.257 266.919,423.664 289.248,434.97C313.314,447.156 311.557,450.547 325.82,469.234C332.747,478.311 331.762,478.954 347.777,502.318C349.266,504.49 349.083,504.602 350.945,506.5L350.236,507.837C341.171,503.95 340.934,502.907 334.445,500.653C325.614,497.586 325.845,497.005 320.529,495.407C308.222,491.709 304.912,491.439 303.517,491.325C299.443,490.992 299.589,489.958 287.499,489.535C273.715,489.053 246.226,494.511 238.604,497.739C224.477,503.721 215.481,510.334 213.638,511.689C206.115,517.219 205.958,518.407 204.742,517.252Z" style="fill:rgb(168,245,203);"/>
        </g>
        <path d="M427.534,214.341C437.435,220.673 443.778,226.862 451.398,232.646C466.957,244.458 466.507,244.968 481.364,257.661C506.015,278.723 526.911,285.972 541.681,294.18C547.589,297.464 556.735,299.991 561.695,302.047C574.098,307.188 585.358,309.157 615.452,315.774C641.118,321.417 674.285,313.844 692.623,301.699C705.729,293.02 712.866,289.575 716.787,286.893C720.884,284.092 721.036,284.409 721.545,284.228C724.958,285.682 724.771,285.976 727.422,288.575C731.459,292.534 742.702,307.643 748.425,313.572C757.771,323.255 757.21,323.706 764.811,334.393C771.68,343.456 776.741,354.433 779.787,359.322C783.556,365.37 784.473,364.878 791.62,381.476C790.137,381.841 790.197,382.173 785.515,382.323C772.244,382.747 751.922,386.701 738.618,393.708C706.072,410.849 698.285,417.732 686.716,423.876C677.639,428.697 677.886,429.078 668.865,433.998C665.206,435.994 661.104,438.984 660.456,439.457C658.724,440.719 659.093,441.143 657.234,442.13C657.204,442.147 655.761,442.663 655.465,443.5C655.021,444.756 654.982,444.716 654.496,445.939C649.558,445.767 637.418,445.2 627.438,447.156C623.771,447.875 608.626,450.844 585.194,467.076C582.903,468.662 573.113,475.444 558.778,489.77C539.583,508.953 529.401,533.204 527.437,539.478C520.016,563.19 520.996,580.069 520.013,582.27C518.687,585.239 507.856,585.115 506.357,581.565C505.851,580.368 503.407,551.804 493.297,530.597C485.424,514.081 479.763,499.442 461.892,484.053C433.987,460.023 426.091,455.651 393.356,445.87C393.163,445.453 393.679,444.917 393.487,444.5C393.266,444.021 392.651,443.856 392.262,443.5C391.262,442.586 391.49,442.446 390.703,441.354C389.162,439.215 388.938,438.782 386.758,435.368C382.068,428.024 382.193,427.957 381.746,427.346C376.613,420.339 371.998,407.96 366.86,401.284C360.767,393.366 360.52,391.843 357.713,388.341C352.441,381.763 338.608,360.508 294.474,345.579C279.525,340.523 259.547,342.405 258.53,342.783C257.023,343.344 257.126,342.654 255.819,341.688C258.292,338.353 265.612,327.03 271.353,320.368C275.539,315.509 280.833,308.188 285.229,303.257C302.857,283.488 322.093,269.68 325.224,267.183C327.306,265.606 329.36,264.394 332.167,262.094C343.259,253.003 343.604,253.525 355.585,245.631C367.485,237.791 372.819,235.894 374.439,235.318C383.725,232.014 383.657,231.251 392.393,227.269C409.299,219.564 419.87,213.352 427.534,214.341Z" style="fill:rgb(112,190,209);"/>
        <path d="M817.479,556.498C817.449,556.814 817.653,563.096 817.515,563.106C814.81,563.289 793.538,559.553 775.927,560.212C755.13,560.991 747.148,563.372 739.639,565.073C733.089,566.556 691.646,581.254 683.137,589.055C649.153,620.211 651.393,622.368 637.199,637.215C635.049,639.465 623.505,651.539 608.404,663.374C600.855,669.29 576.169,683.231 559.528,687.596C557.614,688.098 550.463,689.974 535.417,693.067C527.556,694.683 503.829,694.94 490.571,692.147C473.156,688.477 468.534,688.552 454.711,681.128C452.024,679.685 444.093,676.085 436.649,671.258C428.564,666.016 419.108,663.006 417.503,662.495C408.83,658.49 385.541,634.539 359.644,619.247C349.043,612.986 320.152,603.947 301.468,602.916C275.079,601.46 258.686,607.007 241.444,613.352C233.593,616.241 227.792,621.481 225.483,620.529C223.924,619.886 219.108,605.23 217.21,599.601C217.038,599.094 212.642,583.05 212.677,582.51C212.753,581.338 212.814,580.4 223.753,572.861C230.872,567.956 250.156,557.178 267.432,554.115C271.575,553.381 283.631,549.999 304.537,553.273C315.333,554.964 321.863,559.078 343.384,568.754C351.593,572.445 353.205,574.071 367.232,584.848C381.991,596.188 382.171,595.881 397.681,606.223C405.217,611.248 443.084,631.106 465.473,635.619C478.232,638.191 502.486,645.27 548.495,638.466C557.684,637.107 586.114,629.426 604.632,620.785C625.859,610.879 635.497,607.18 657.409,589.382C666.097,582.325 696.176,561.214 707.616,555.751C711.078,554.097 733.022,543.618 753.539,541.925C773.113,540.31 795.285,544.261 806.335,548.89C814.548,552.33 817.878,552.404 817.479,556.498Z" style="fill:rgb(100,161,254);"/>
        <path d="M209.556,566.487C206.631,549.345 207.35,549.278 206.433,540.506C205.746,533.933 204.571,532.945 209.739,528.794C227.429,514.586 236.425,510.328 247.542,506.627C272.285,498.389 300.962,497.582 323.504,507.49C361.644,524.252 383.904,547.116 411.373,565.699C415.453,568.459 437.246,578.804 437.718,579.011C478.133,596.771 509.812,595.945 523.498,595.457C539.34,594.892 563.674,589.969 575.611,585.823C596.865,578.44 609.539,574.031 636.423,554.391C647.867,546.03 657.244,535.42 674.788,524.987C686.955,517.752 694.378,511.506 702.443,508.361C717.843,502.354 745.998,489.701 785.431,496.857C799.496,499.409 815.959,507.153 818.373,508.685C820.139,509.805 819.884,513.665 818.708,538.513C818.593,540.944 818.859,542.155 816.494,541.532C816.356,541.495 805.548,537.563 804.596,537.217C798.093,534.851 775.486,531.448 774.513,531.354C750.078,528.983 738.648,531.983 718.438,538.293C710.395,540.804 692.6,550.047 682.648,557.696C659.814,575.246 658.339,574.751 653.657,578.693C634.056,595.194 630.885,595.252 617.244,603.068C601.15,612.29 595.836,613.01 589.514,615.536C559.088,627.692 514.896,634.067 478.561,627.202C471.962,625.955 455.179,621.149 448.507,618.482C429.151,610.743 428.749,611.565 410.714,601.118C399.907,594.859 400.572,593.925 390.2,586.907C377.773,578.499 378.321,577.741 355.298,562.827C351.039,560.068 324.07,542.597 295.494,541.677C263.64,540.651 253.317,546.275 246.576,548.715C233.557,553.429 216.573,564.884 212.666,567.748C210.087,569.638 209.976,567.59 209.556,566.487Z" style="fill:rgb(137,240,203);"/>
        <path d="M265.625,694.418C262.781,690.238 253.04,675.279 252.992,675.197C249.882,670 248.488,668.914 251.5,667.5C268.204,659.663 281.092,658.526 287.472,658.084C321.31,655.741 356.504,678.052 363.252,682.85C388.016,700.461 400.165,717.606 404.966,724.154C410.791,732.101 425.887,745.381 429.116,747.956C439.622,756.338 444.707,762.043 459.699,770.141C481.917,782.14 512.915,787.955 513.574,788.09C542.241,793.955 573.566,786.9 579.623,784.888C606.443,775.983 606.512,776.096 618.318,770.131C625.973,766.264 640.887,755.679 646.76,749.775C655.405,741.083 668.002,730.779 675.076,721.181C676.51,719.236 685.947,706.433 692.393,696.428C707.155,673.519 709.089,671.982 709.934,670.841C715.831,662.871 731.004,648.025 744.637,641.788C769.974,630.196 785.448,634.954 790.449,635.872C794.634,636.639 792.553,639.201 787.847,647.695C780.139,661.61 776.47,669.582 772.151,677.304C766.603,687.225 745.26,709.873 740.94,715.844C726.784,735.415 720.171,738.146 699.322,755.272C673.612,776.392 667.54,776.188 656.633,782.737C624.726,801.896 594.314,809.801 569.405,815.034C535.84,822.084 492.645,819.786 480.517,818.353C462.5,816.225 459.579,817.387 452.587,812.373C440.937,804.018 433.386,802.778 416.599,785.404C404.369,772.746 401.614,767.24 401.24,766.666C394.385,756.17 394.385,756.217 386.97,746.132C385.826,744.576 381.697,738.961 370.643,728.349C361.758,719.82 351.524,707.753 324.384,698.842C302.87,691.778 278.635,695.658 277.569,695.881C270.97,697.264 269.683,699.785 265.625,694.418Z" style="fill:rgb(168,206,237);"/>
        <path d="M239.229,652.632C238.482,651.21 234.122,642.917 230.892,634.37C229.654,631.095 237.121,627.289 245.312,623.126C259.106,616.115 279.078,613.426 283.483,613.238C313.187,611.976 328.764,618.498 332.389,619.816C349.101,625.895 368.633,638.864 370.63,640.319C393.54,657.009 394.301,657.52 402.625,666.38C416.876,681.549 416.961,681.453 418.186,682.784C430.412,696.082 431.12,695.35 443.595,708.406C454.838,720.171 474.617,731.426 487.391,735.794C508.609,743.048 537.602,751.015 568.576,741.781C578.211,738.908 592.34,736.031 607.201,727.042C609.238,725.81 619.637,718.02 625.604,712.615C646.74,693.471 650.047,687.612 656.181,679.263C684.176,641.152 684.716,641.562 687.096,638.21C697.909,622.98 698.766,621.663 729.628,601.707C732.238,600.02 747.489,590.158 765.579,586.991C773.006,585.691 788.722,586.31 800.522,590.438C807.64,592.928 809.891,593.631 808.405,597.466C802.581,612.503 803.056,612.643 799.486,623.495C798.229,627.316 796.61,623.547 785.462,622.925C755.914,621.276 735.009,633.491 719.137,646.058C697.573,663.132 694.592,675.547 684.628,688.594C671.692,705.534 666.689,713.118 663.783,716.718C657.586,724.397 650.028,731.788 649.925,731.902C634.482,748.945 591.656,776.6 550.493,778.259C525.625,779.262 510.027,775.684 504.467,774.674C488.45,771.764 469.809,761.747 463.681,758.166C457.854,754.76 454.769,754.034 441.41,742.606C438.433,740.058 438.466,740.076 438.207,739.861C423.069,727.292 423.583,726.754 408.668,710.349C397.13,697.657 398.707,695.988 376.399,678.624C356.339,663.009 355.698,663.955 345.329,658.862C318.827,645.844 289.051,646.447 273.454,649.221C250.157,653.364 250.655,655.112 244.427,657.248C241.636,658.206 239.686,653.422 239.229,652.632Z" style="fill:rgb(169,206,237);"/>
        <path d="M255.819,341.688C257.126,342.654 257.023,343.344 258.53,342.783C259.547,342.405 279.525,340.523 294.474,345.579C338.608,360.508 352.441,381.763 357.713,388.341C360.52,391.843 360.767,393.366 366.86,401.284C371.998,407.96 376.613,420.339 381.746,427.346C382.193,427.957 382.068,428.024 386.758,435.368C388.938,438.782 389.162,439.215 390.703,441.354C391.49,442.446 391.262,442.586 392.262,443.5C392.651,443.856 393.266,444.021 393.487,444.5C393.679,444.917 393.163,445.453 393.356,445.87C391.37,445.728 379.474,444.877 368.475,446.32C358.488,447.631 336.901,456.41 336.595,456.626C333.03,459.152 339.923,476.673 348.736,485.26C362.095,498.278 369.431,501.53 371.519,502.455C401.52,515.752 420.358,507.898 445.5,508.087C468.716,508.261 481.435,523.696 485.062,533.653C492.246,553.373 494.758,571.191 496.07,579.546C496.79,584.127 492.076,582.325 489.436,581.941C486.342,581.49 473.661,579.643 451.547,572.353C428.822,564.862 405.839,548.277 405.248,547.804C387.376,533.47 387.211,533.73 368.218,520.894C360.723,515.829 355.25,510.828 350.236,507.837L350.945,506.5C349.083,504.602 349.266,504.49 347.777,502.318C331.762,478.954 332.747,478.311 325.82,469.234C311.557,450.547 313.314,447.156 289.248,434.97C266.919,423.664 236.867,428.498 220.722,435.922C216.8,437.725 215.226,439.709 214.509,439.454C213.989,439.27 213.668,438.698 213.148,438.513C214.994,432.061 218.459,416.309 225.063,402.293C229.274,393.355 229.472,391.404 229.794,390.605C232.226,384.577 232.395,384.693 234.796,378.623C240.095,365.231 250.131,351.29 255.819,341.688Z" style="fill:rgb(109,158,223);"/>
        <path d="M484.608,487.424C480.395,481.895 468.024,470.341 466.154,468.938C450.821,457.437 443.228,453.726 434.305,448.85C428.321,445.579 412.522,439.775 401.123,425.805C393.331,416.257 390.375,409.895 387.771,405.342C379.525,390.923 377.462,372.204 378.282,358.484C378.492,354.954 382.383,355.927 387.587,357.058C410.365,362.007 414.742,362.51 420.602,365.272C431.377,370.35 438.322,374.379 446.848,383.163C476.269,413.48 482.868,440.778 488.749,456.401C494.325,471.213 495.219,470.863 501.687,491.446C509.199,515.351 508.672,515.489 509.393,517.543C510.266,520.029 513.772,520.755 515.444,519.424C516.311,518.734 516.605,518.499 520.083,506.383C523.674,493.873 524.032,494.015 527.485,481.496C535.285,453.207 544.509,436.1 545.638,433.568C555.107,412.329 561.413,405.695 569.981,393.863C580.27,379.654 598.242,367.996 611.599,362.751C619.692,359.573 647.397,355.127 647.575,355.157C649.321,355.455 649.583,356.469 649.343,369.497C648.866,395.37 638.066,414.594 611.183,438.134C604.256,444.2 585.171,451.521 567.749,464.829C564.971,466.951 545.693,481.676 536.888,495.756C524.775,515.123 524.438,519.333 524.387,519.456C516.508,538.573 516.661,545.9 511.556,544.338C507.144,542.988 505.651,522.472 494.759,504.358C485.391,488.779 485.458,488.755 484.608,487.424Z" style="fill:white;"/>
        <path d="M498.313,202.864C501.688,205.544 502.44,207.108 505.484,209.521C516.403,218.174 516.106,218.501 527.248,226.845C530.452,229.245 529.998,229.921 538.627,234.248C539.332,234.601 539.21,234.801 547.316,238.906C574.199,252.521 599.364,259.138 613.496,259.556C626.048,259.928 626.048,260.465 636.494,259.413C643.232,258.734 643.308,259.24 648.536,257.671C651.392,256.814 654.473,257.247 658.534,255.625C662.987,253.847 663.21,254.567 667.515,252.537C670.3,251.224 670.769,252.009 672.582,249.888C673.539,248.769 674.378,249.091 674.532,249.022C679.672,250.59 681.355,252.385 691.858,260.024C695.541,262.702 703.629,270.417 710.189,274.927C710.806,275.352 710.787,275.371 717.311,280.738C719.439,282.488 719.584,282.284 721.545,284.228C721.036,284.409 720.884,284.092 716.787,286.893C712.866,289.575 705.729,293.02 692.623,301.699C674.285,313.844 641.118,321.417 615.452,315.774C585.358,309.157 574.098,307.188 561.695,302.047C556.735,299.991 547.589,297.464 541.681,294.18C526.911,285.972 506.015,278.723 481.364,257.661C466.507,244.968 466.957,244.458 451.398,232.646C443.778,226.862 437.435,220.673 427.534,214.341C427.974,214.053 428.06,213.382 428.5,213.095C428.916,212.822 429.029,213.205 434.541,211.633C437.211,210.872 450.15,207.183 468.49,204.439C474.586,203.527 478.298,203.861 486.62,201.969C493.356,200.439 497.47,202.452 498.313,202.864Z" style="fill:rgb(182,251,201);"/>
        <path d="M791.62,381.476C798.113,394.266 806.546,411.665 810.682,431.48C811.467,435.245 808.293,433.148 805.533,432.365C779.216,424.9 760.33,430.643 756.583,431.782C728.933,440.19 718.628,453.422 715.501,456.501C714.536,457.452 706.264,465.598 703.817,468.765C700.416,473.165 683.314,502.235 682.23,504.283C679.661,509.065 675.65,509.878 667.79,515.858C643.275,534.51 643.283,534.469 641.263,536.225C627.351,548.318 620.266,552.071 617.357,554.305C599.665,567.896 585.927,570.521 567.402,576.183C559.893,578.477 532.327,584.62 530.197,582.92C529.549,582.402 528.641,581.677 529.875,572.547C532.591,552.452 535.647,544.342 542.233,532.358C552.183,514.253 565.159,509.95 568.608,508.838C575.093,506.747 589.556,506.424 600.442,507.902C615.044,509.883 615.096,511.608 638.531,508.744C648.35,507.544 661.809,500.386 671.65,491.671C692.818,472.924 692.213,464.204 692.615,460.513C693.218,454.977 690.907,455.789 685.511,454.457C674.121,451.646 674.862,448.686 654.496,445.939C654.982,444.716 655.021,444.756 655.465,443.5C655.761,442.663 657.204,442.147 657.234,442.13C659.093,441.143 658.724,440.719 660.456,439.457C661.104,438.984 665.206,435.994 668.865,433.998C677.886,429.078 677.639,428.697 686.716,423.876C698.285,417.732 706.072,410.849 738.618,393.708C751.922,386.701 772.244,382.747 785.515,382.323C790.197,382.173 790.137,381.841 791.62,381.476Z" style="fill:rgb(100,156,220);"/>
        <path d="M817.511,562.149C817.649,562.14 814.006,579.494 813.196,580.23C811.996,581.321 811.84,580.094 802.499,577.502C778.603,570.873 768.256,575.013 750.573,578.882C749.009,579.224 740.498,579.685 715.771,595.901C715.393,596.149 703.994,604.709 699.593,608.603C696.28,611.536 678.622,629.603 664.963,649.825C661.465,655.003 661.204,654.785 646.034,676.142C636.171,690.027 608.159,713.61 597.31,719.133C567.466,734.326 548.681,735.92 521.518,733.338C517.585,732.964 498.146,729.588 484.226,721.979C473.725,716.239 459.342,708.589 438.64,687.372C432.222,680.793 432.169,680.877 425.944,674.132C423.254,671.217 423.549,671.001 420.748,668.161C420.605,668.016 420.524,667.818 420.395,667.66C420.262,667.496 416.967,664.858 416.932,664.5C416.916,664.334 416.974,664.352 417.503,662.495C419.108,663.006 428.564,666.016 436.649,671.258C444.093,676.085 452.024,679.685 454.711,681.128C468.534,688.552 473.156,688.477 490.571,692.147C503.829,694.94 527.556,694.683 535.417,693.067C550.463,689.974 557.614,688.098 559.528,687.596C576.169,683.231 600.855,669.29 608.404,663.374C623.505,651.539 635.049,639.465 637.199,637.215C651.393,622.368 649.153,620.211 683.137,589.055C691.646,581.254 740.434,556.469 761.231,555.69C778.842,555.031 814.806,562.333 817.511,562.149Z" style="fill:rgb(188,215,241);"/>
        <path d="M486.665,333.587C491.841,322.376 499.493,314.476 508.409,307.385C511.994,304.533 513.114,302.964 518.142,307.872C532.382,321.77 537.656,332.623 541.031,343.641C546.65,361.989 546.257,370.141 546.195,376.495C545.919,404.684 534.474,424.126 524.274,455.422C517.883,475.029 516.569,479.462 511.486,476.521C509.994,475.657 510.167,475.351 503.695,456.427C496.6,435.677 489.046,425.943 485.713,413.439C482.245,400.428 480.6,387.78 480.307,385.525C477.959,367.471 482.979,342.341 486.665,333.587Z" style="fill:white;"/>
        <path d="M213.148,438.513C213.668,438.698 213.989,439.27 214.509,439.454C215.226,439.709 216.8,437.725 220.722,435.922C236.867,428.498 266.919,423.664 289.248,434.97C313.314,447.156 311.557,450.547 325.82,469.234C332.747,478.311 331.762,478.954 347.777,502.318C349.266,504.49 349.083,504.602 350.945,506.5L350.236,507.837C341.171,503.95 340.934,502.907 334.445,500.653C325.614,497.586 325.845,497.005 320.529,495.407C308.222,491.709 304.912,491.439 303.517,491.325C299.443,490.992 299.589,489.958 287.499,489.535C273.715,489.053 246.226,494.511 238.604,497.739C224.477,503.721 215.481,510.334 213.638,511.689C206.115,517.219 205.958,518.407 204.742,517.252C204.214,516.751 204.275,513.803 204.282,513.501C204.684,494.195 205.945,486.751 206.334,484.454C206.514,481.963 206.219,481.981 206.463,479.497C207.483,469.132 209.036,460.142 209.324,458.469C209.601,456.867 211.375,446.597 213.148,438.513Z" style="fill:rgb(168,245,203);"/>
        <path d="M498.313,202.864L499.5,201.38C501.55,201.473 526.178,201.392 528.498,201.384C540.832,201.344 567.537,205.651 575.47,207.617C585.671,210.145 585.709,209.93 586.577,210.211C587.993,210.669 601.136,214.453 602.403,214.818C606.222,215.918 628.909,224.77 644.505,232.489C655.578,237.97 655.698,237.675 656.652,238.165C657.638,238.673 665.3,242.997 666.336,243.726C669.478,245.934 671.57,246.781 672.55,247.411C673.567,248.064 673.281,248.312 673.501,248.496C673.796,248.744 674.237,248.774 674.532,249.022C674.378,249.091 673.539,248.769 672.582,249.888C670.769,252.009 670.3,251.224 667.515,252.537C663.21,254.567 662.987,253.847 658.534,255.625C654.473,257.247 651.392,256.814 648.536,257.671C643.308,259.24 643.232,258.734 636.494,259.413C626.048,260.465 626.048,259.928 613.496,259.556C599.364,259.138 574.199,252.521 547.316,238.906C539.21,234.801 539.332,234.601 538.627,234.248C529.998,229.921 530.452,229.245 527.248,226.845C516.106,218.501 516.403,218.174 505.484,209.521C502.44,207.108 501.688,205.544 498.313,202.864Z" style="fill:rgb(209,252,213);"/>
        <path d="M423.611,806.465C423.557,806.999 423.503,807.533 423.448,808.068C419.476,806.731 402.145,800.193 392.604,795.294C379.41,788.52 379.477,788.419 378.324,787.844C347.254,772.348 334.307,762.385 306.742,739.204C304.62,737.42 293.504,728.072 282.063,714.881C279.609,712.051 274.834,708.638 281.498,707.488C297.651,704.701 310.197,705.32 330.326,713.88C336.142,716.353 348.334,723.853 352.645,727.31C370.428,741.572 381.416,757.385 388.697,767.363C398.161,780.332 411.89,796.335 414.782,799.214C415.756,800.184 421.821,805.221 422.497,805.502C423.585,805.953 423.331,806.222 423.611,806.465Z" style="fill:rgb(155,199,233);"/>
        <path d="M571.523,522.555C572.435,522.252 578.129,520.361 583.531,522.427C600.888,529.067 598.547,549.616 586.219,556.013C565.585,566.719 550.61,532.493 571.523,522.555Z" style="fill:rgb(249,249,228);"/>
        <path d="M453.452,522.796C475.539,528.654 464.912,562.602 444.433,556.742C433.922,553.734 422.745,531.544 441.581,523.691C442.028,523.505 444.202,522.598 447.491,522.372C450.484,522.167 450.443,522.443 453.452,522.796Z" style="fill:rgb(250,248,229);"/>
        <path d="M565.289,351.667C564.714,350.852 561.287,345.994 562.521,339.504C565.156,325.657 579.805,326.76 584.617,333.408C592.366,344.111 585.219,356.546 575.503,356.412C568.417,356.313 565.937,352.376 565.289,351.667Z" style="fill:rgb(249,248,226);"/>
        <path d="M463.461,340.504C463.55,341.964 464.241,353.24 453.606,355.907C440.164,359.277 431.2,339.664 443.665,330.736C448.549,327.238 461.285,327.051 463.461,340.504Z" style="fill:rgb(249,247,229);"/>
        <path d="M423.611,806.465C423.701,806.663 424.153,806.433 424.243,806.632C424.365,806.9 424.072,807.206 424.08,807.5C424.085,807.691 424.422,807.91 424.28,808.038C424.074,808.223 423.655,807.882 423.448,808.068C423.503,807.533 423.557,806.999 423.611,806.465Z" style="fill:rgb(229,236,225);"/>
        <path d="M341.487,499.602C341.797,499.731 342.175,499.336 342.485,499.466C342.844,499.616 343.24,499.953 343.257,500.342C343.317,501.702 342.741,500.126 341.487,499.602Z" style="fill:rgb(158,248,198);"/>
    </g>
</svg>
