<?xml version="1.0" encoding="UTF-8" standalone="no"?><!DOCTYPE svg PUBLIC "-//W3C//DTD SVG 1.1//EN" "http://www.w3.org/Graphics/SVG/1.1/DTD/svg11.dtd"><svg width="100%" height="100%" viewBox="0 0 4267 4267" version="1.1" xmlns="http://www.w3.org/2000/svg" xmlns:xlink="http://www.w3.org/1999/xlink" xml:space="preserve" xmlns:serif="http://www.serif.com/" style="fill-rule:evenodd;clip-rule:evenodd;stroke-linejoin:round;stroke-miterlimit:2;"><g id="Background"><path d="M2564.536,512.04c3.734,0.456 26.758,3.265 45.576,11.585c35.662,15.766 55.949,40.227 59.512,44.413c30.157,35.433 38.695,76.87 40.201,84.179c8.945,43.413 -3.056,68.904 8.602,71.86c8.123,2.06 34.568,-2.908 75.31,3.093c14.588,2.149 14.715,1.003 29.141,4.236c14.13,3.166 70.572,11.066 142.793,52.033c2.588,1.468 20.411,11.578 31.589,19.627c0.816,0.587 34.681,22.598 62.538,49.667c18.349,17.83 55.902,52.814 91.767,116.311c58.922,104.318 61.494,182.155 62.584,237.215c0.223,11.24 0.267,193.596 -3.436,229.185c-3.029,29.112 -0.937,29.234 -4.714,58.273c-1.413,10.866 -0.567,16.625 -2.991,33.51c-1.821,12.689 -14.138,143.575 -64.389,270.312c-17.331,43.712 -29.412,65.838 -48.531,96.529c-3.803,6.105 -17.542,25.166 -19.101,27.33c-0.585,0.812 -10.979,12.956 -11.355,13.371c-9.098,10.038 1.934,10.006 27.547,45.109c6.206,8.506 6.488,8.243 12.306,16.977c42.21,63.361 50.94,109.099 55.933,130.438c9.494,40.581 9.253,78.011 7.595,120.55c-0.798,20.47 -3.037,24.87 -3.868,33.236c-3.948,39.738 -23.795,102.998 -51.159,151.134c-1.835,3.228 -17.693,31.123 -23.841,39.829c-8.56,12.121 -26.229,40.267 -73.886,92.396c-6.525,7.138 -37.457,40.972 -86.598,84.343c-18.267,16.122 -65.46,53.981 -71.368,57.755c-2.418,1.544 -2.155,1.852 -28.914,21.214c-37.758,27.321 -76.022,47.416 -82.918,51.038c-115.482,60.648 -179.975,54.941 -259.209,55.026c-77.66,0.083 -953.563,1.024 -970.747,-0.345c-35.569,-2.834 -79.545,-11.41 -87.835,-13.882c-19.823,-5.911 -62.239,-15.121 -127.787,-52.805c-1.476,-0.849 -32.981,-20.97 -37.649,-24.398c-18.687,-13.725 -144.811,-102.393 -191.621,-273.917c-19.278,-70.638 -15.136,-120.435 -15.5,-133.054c-0.504,-17.473 -0.192,-513.664 -0.164,-558.33c0.001,-155.554 0.002,-311.109 0.003,-466.663c0.018,-128.467 1.127,-138.037 2.507,-149.956c2.17,-18.732 1.291,-18.777 4.462,-37.419c1.782,-10.476 1.163,-10.536 3.701,-20.908c1.091,-4.456 9.59,-57.864 43.912,-121.78c2.986,-5.561 23.327,-43.441 42.341,-66.573c4.748,-5.776 13.604,-17.949 26.626,-32.01c13.792,-14.892 134.412,-155.549 332.759,-157.284c41.742,-0.365 47.825,1.625 48.851,-5.882c1.688,-12.349 -7.47,-72.198 28.696,-130.009c53.89,-86.14 168.856,-105.111 242.608,-31.68c38.246,38.079 46.518,78.49 51.26,99.181c5.182,22.611 0.608,61.665 4.438,66.052c3.572,4.092 4.976,1.941 407.462,2.228c95.609,0.068 95.561,-0.533 96.183,-0.766c6.365,-2.388 1.269,-5.374 5.133,-58.89c2.595,-35.939 16.79,-61.401 31.404,-83.892c4.866,-7.49 20.094,-23.418 21.253,-24.787c2.928,-3.46 19.702,-17.186 30.309,-23.225c41.17,-23.438 66.94,-21.229 90.68,-20.781Z" style="fill:#1f686a;"/><path d="M1158.333,1101.176c11.394,-49.291 38.193,-95.257 47.058,-107.994c3.109,-4.468 95.28,-157.322 284.322,-176.71c11.37,-1.166 55.156,-1.178 58.149,-0.965c4.621,0.329 6.066,3.257 6.328,3.786c1.067,2.16 -0.536,25.704 1.585,41.191c9.666,70.581 52.535,99.551 63.514,107.48c23.59,17.034 64.491,32.214 91.204,26.098c47.275,-10.825 49.654,-55.5 34.171,-75.942c-15.514,-20.484 -28.359,-17.097 -46.698,-20.475c-4.564,-0.841 -35.236,-6.49 -44.032,-37.761c-0.807,-2.868 -5.056,-17.976 -3.628,-37.058c0.665,-8.88 7.895,-7.436 14.256,-7.397c23.022,0.141 716.2,0.077 716.666,0.106c0.648,0.04 5.673,0.353 7.225,3.703c3.459,7.465 -7.667,52.035 22.694,103.247c34.245,57.764 96.317,72.034 115.875,72.741c54.258,1.962 71.752,-49.223 51.069,-77.172c-11.751,-15.88 -22.343,-17.323 -34.51,-18.46c-63.644,-5.949 -59.966,-57.65 -60.347,-68.336c-0.604,-16.939 4.357,-15.878 10.503,-15.885c63.892,0.022 127.784,0.045 191.676,0.067c31.742,-0.019 166.144,-11.86 292.253,94.276c140.398,118.161 140.882,263.081 141.38,300.698c3.386,256.006 -14.454,348.652 -31.904,417.092c-3.767,14.774 -27.864,109.287 -77.148,174.267c-3.136,4.135 -25.437,33.538 -45.039,46.687c-19.974,13.398 -21.28,11.871 -30.036,9.503c-82.559,-22.322 -125.642,-20.046 -187.125,-19.748c-6.534,0.032 -9.796,1.958 -20.59,2.715c-28.668,2.013 -72.007,12.39 -100.494,22.635c-89.846,32.312 -140.564,89.198 -148.783,97.648c-17.634,18.131 -20.089,23.388 -23.136,27.177c-38.612,48.016 -43.554,73.765 -58.297,95.48c-6.563,-0.106 -343.691,-0.122 -373.578,-0.123c-612.496,-0.028 -652.747,-0.36 -658.51,0.652c-17.39,3.055 -44.334,9.463 -67.099,33.767c-22.051,23.542 -27.692,48.51 -30.191,62.827c-2.239,12.826 -1.27,12.908 -1.151,162.744c0.06,76.248 -1.953,98.216 12.337,137.076c13.385,36.398 39.663,64.947 48.588,71.496c0.782,0.574 21.443,18.105 37.444,25.266c17.168,7.684 24.837,11.635 58.447,17.058c10.808,1.744 10.812,1.682 237.637,1.631c762.807,-0.17 762.798,0.785 791.829,-1.116c7.056,-1.481 37.147,-4.955 62.303,-30.594c0.421,0.903 -2.268,1.446 -1.847,2.349c1.188,2.548 4.38,3.698 5.799,6.125c2.45,4.192 -11.11,11.55 -12.33,12.212c-15.503,8.412 -15.072,9.259 -33.368,15.885c-5.769,2.09 -8.768,0.028 -9.507,-0.011c-6.7,-0.353 -4.888,2.808 -8.156,8.736c-10.083,18.291 -9.821,18.436 -22.281,35.143c-5.458,7.318 -4.862,7.749 -13.191,16.33c-27.71,28.549 -46.727,41.909 -76.343,56.613c-7.674,3.81 -8.113,2.563 -15.764,6.264c-1.638,0.792 -3.058,1.981 -4.667,2.829c-7.263,3.824 -7.776,2.513 -8.314,2.97c-1.831,1.557 -2.309,4.347 -4.14,5.904c-14.644,0.239 -14.545,1.142 -29.202,1.07c-78.295,-0.387 -614.434,-0.087 -650.002,-0.19c-99.692,-0.289 -106.532,1.915 -158.032,-7.203c-94.722,-16.77 -160.377,-68.061 -162.6,-69.435c-9.812,-6.062 -8.851,-7.366 -16.68,-12.468c-13.312,-8.675 -54.587,-50.645 -62.998,-62.01c-10.26,-13.863 -13.238,-16.802 -14.269,-18.332c-32.628,-48.401 -43.514,-80.39 -48.66,-94.139c-13.138,-35.103 -22.055,-82.771 -23.209,-121.16c-0.975,-32.405 0.296,-678.457 0.412,-737.453c0.843,-428.396 -1.295,-428.575 3.194,-458.265c2.191,-14.489 2.72,-31.335 9.936,-55.144Z" style="fill:#e2ece1;"/><path d="M2147.409,1224.843c17.299,5.384 38.026,11.061 74.526,29.225c29.385,14.623 62.044,40.569 67.09,44.578c44.722,35.53 73.16,77.891 82.567,91.804c1.977,2.924 23.459,38.306 32.006,61.082c10.034,26.738 33.248,78.463 31.164,171.358c-1.219,54.315 -12.475,97.144 -28.333,137.594c-27.016,68.915 -78.854,121.175 -83.428,125.015c-1.083,0.909 -0.834,1.129 -12.816,12.162c-27.344,25.18 -62.569,47.593 -86.684,59.741c-234.328,118.045 -534.211,-8.835 -579.773,-288.649c-10.82,-66.452 -1.127,-122.72 0.683,-133.223c4.901,-28.45 9.521,-55.666 37.264,-112.383c29.341,-59.983 89.26,-115.803 103.551,-125.456c9.446,-6.38 8.434,-7.665 38.601,-27.501c9.491,-6.241 42.405,-23.754 61.404,-31.066c12.233,-4.708 120.839,-52.119 262.177,-14.282Z" style="fill:#fec4a4;"/><path d="M2396.495,2083.87c-4.252,18.533 -10.599,29.269 -15.59,47.248c-1.812,6.528 -1.944,6.385 -4.407,12.747c-5.866,-1.661 -5.793,-2.011 -11.879,-1.833c-15.331,0.449 -15.322,-0.454 -191.714,0.045c-15.251,0.043 -12.108,6.462 -12.037,14.169c0.268,28.999 -0.571,28.96 -0.277,362.502c0.008,8.967 -1.381,19.932 3.558,21.731c4.062,1.479 152.527,0.239 258.818,0.72c0.698,0.003 7.452,0.034 8.609,-1.436c0.979,-1.244 -0.221,-3.445 0.759,-4.69c0.17,0.327 1.032,4.089 4.475,8.581c8.944,11.669 7.837,12.377 16.412,24.281c0.698,0.969 5.12,7.107 6.524,13.43c0.837,3.768 0.851,3.727 0.746,4.038c-0,0 -7.582,8.966 -8.242,9.746c-29.031,1.901 -29.022,0.946 -791.829,1.116c-226.825,0.05 -226.829,0.113 -237.637,-1.631c-33.611,-5.423 -41.279,-9.374 -58.447,-17.058c-16.001,-7.161 -36.662,-24.693 -37.444,-25.266c-8.925,-6.549 -35.203,-35.098 -48.588,-71.496c-14.29,-38.86 -12.277,-60.828 -12.337,-137.076c-0.119,-149.836 -1.087,-149.918 1.151,-162.744c2.499,-14.317 8.14,-39.285 30.191,-62.827c22.766,-24.304 49.71,-30.713 67.099,-33.767c5.763,-1.012 46.014,-0.68 658.51,-0.652c29.886,0.001 367.014,0.017 373.578,0.123Z" style="fill:#42989b;"/><path d="M2514.552,2564.556c11.252,-14.777 10.892,-23.093 10.028,-33.501c-2.674,-32.24 -63.688,-94.363 -72.677,-224.792c-0.505,-7.335 -3.448,-50.038 3.314,-91.844c22.406,-138.515 90.671,-193.113 121.047,-217.584c1.449,-1.167 10.984,-8.849 18.709,-13.818c21.106,-13.579 21.075,-13.562 43.754,-24.459c129.428,-62.19 335.824,-37.379 410.023,143.171c52.977,128.909 3.262,231.579 -17.891,275.151c-0.139,0.287 -24.135,49.035 -66.98,99.626c-53.506,63.179 -78.835,78.118 -106.878,105.864c-0.972,0.962 -15.286,15.124 -15.49,7.242c-0.128,-4.956 9.018,-8.973 25.14,-31.888c39.967,-56.81 61.174,-93.089 81.699,-142.962c80.617,-195.893 -43.875,-341.369 -191.934,-319.721c-97.766,14.294 -139.686,91.187 -143.608,97.633c-48.852,80.294 -21.825,153.608 -9.517,175.435c49.927,88.541 156.057,94.77 210.544,49.703c39.339,-32.539 18.708,-60.74 4.822,-65.466c-21.129,-7.191 -27.614,9.44 -53.97,16.775c-24.921,6.936 -44.81,-2.657 -46.437,-3.315c-45.236,-18.293 -67.142,-87.686 -21.639,-148.007c40.941,-54.274 110.664,-56.865 152.199,-29.635c83.261,54.586 59.093,179.443 -16.37,281.422c-23.879,32.269 -50.492,63.35 -101.842,110.941c-36.208,33.558 -91.939,77.287 -137.835,103.221c-64.983,36.719 -116.733,45.033 -136.358,48.396c-43.835,7.512 -138.203,4.201 -145.961,3.761c1.831,-1.557 2.309,-4.347 4.14,-5.904c0.538,-0.457 1.051,0.854 8.314,-2.97c1.61,-0.848 3.03,-2.037 4.667,-2.829c7.651,-3.701 8.09,-2.454 15.764,-6.264c29.616,-14.704 48.633,-28.064 76.343,-56.613c8.329,-8.581 7.733,-9.011 13.191,-16.33c12.46,-16.707 12.198,-16.852 22.281,-35.143c3.268,-5.928 3.727,-17.689 10.427,-17.336c0.739,0.039 1.809,-0.295 7.579,-2.384c18.296,-6.626 11.699,-5.03 27.202,-13.442c0.699,-0.379 5.002,-3.792 5.002,-3.792l2.274,-1.938l0.751,-0.602l0.865,-0.767c0,0 0.028,-0.035 0.048,-0.043c0.009,-0.003 0.021,-0.014 0.021,-0.014c0,0 0.03,-0.05 0.061,-0.059c0.003,-0.001 0.003,-0.004 0.005,-0.006c0.003,-0.003 0.007,-0.006 0.011,-0.009c0.01,-0.009 0.022,-0.016 0.031,-0.026c0.017,-0.016 0.036,-0.027 0.052,-0.043c0.044,-0.045 0.081,-0.079 0.081,-0.079l0.133,-0.117c0,0 0.039,-0.027 0.037,-0.031c-0.014,-0.023 0.052,0.056 0.047,0.036c-0.037,-0.159 0.19,-0.208 0.246,-0.276c0.096,-0.115 0.26,-0.236 0.35,-0.349c0.139,-0.174 0.442,-0.527 0.792,-0.667c0.022,-0.009 -0.005,-0.062 0.018,-0.07c0.018,-0.006 0.082,0.021 0.082,0.021c0,0 -0.049,-0.104 0.02,-0.108c0.029,-0.002 0.057,-0.059 0.057,-0.059l0.045,-0.035c0,0 0.168,-0.311 0.352,-0.311c0.52,0.001 1.392,0.464 0.97,-0.44c-0.421,-0.903 2.268,-1.446 1.847,-2.349Z" style="fill:#b0dad6;"/><path d="M1627.083,2142.039c67.968,-0.309 68.015,-0.684 71.221,0.081c4.63,1.104 5.143,4.921 5.224,5.524c0.344,2.562 0.044,369.777 0.049,375.265c0.01,12.754 2.917,18.133 -9.801,18.281c-4.069,0.047 -138.027,-0.009 -150.029,-0.014c-115.436,-0.049 -117.144,0.646 -137.497,-5.755c-60.525,-19.037 -79.498,-75.423 -80.145,-104.149c-0.447,-19.867 -0.122,-187.855 -0.091,-204.19c0.018,-9.307 -6.938,-69.999 50.923,-83.934c6.084,-1.465 32.909,-1.146 250.147,-1.109Z" style="fill:#fec5a4;"/><path d="M2035.42,2141.964c18.75,0.013 18.689,0.07 37.498,0.092c4.766,0.005 20.459,-0.038 20.833,-0.054c13.3,-0.586 10.983,5.104 10.915,18.399c-0.148,28.667 0.144,28.64 0.006,358.337c-0.007,16.341 0.199,16.33 0.116,16.62c-1.974,6.876 -3.81,5.818 -11.014,5.855c-41.224,0.209 -291.364,-0.031 -316.7,-0.056c-12.608,-0.012 -17.964,2.728 -17.973,-9.901c-0.021,-30.686 -0.259,-381.884 0.088,-383.577c1.3,-6.352 3.039,-5.58 9.516,-5.724c19.432,-0.433 245.377,-0.029 266.714,0.009Z" style="fill:#fec5a4;"/><path d="M2376.497,2143.866c-1.975,10.314 -1.848,10.28 -4.631,20.424c-4.168,15.194 -9.315,52.194 -9.492,54.56c-0.297,3.984 -1.946,26.076 -2.624,49.873c-0.414,14.532 1.322,34.672 2.436,54.1c0.153,2.674 0.527,9.183 4.326,33.194c0.085,0.535 5.488,27.395 6.064,29.492c0.179,0.652 1.922,7.009 2.32,8.12c2.919,8.15 3.018,8.144 2.958,8.654c-0.426,3.605 -4.811,1.659 -5.207,1.484c-2.038,-0.904 -8.616,-9.138 -13.593,-12.14c-23.511,-14.178 -49.315,-18.941 -65.518,-15.445c-14.755,3.184 -31.923,6.47 -57.243,30.973c-7.747,7.497 -18.84,17.206 -9.044,32.3c4.539,6.993 18.659,10.118 28.586,3.647c18.242,-11.891 34.415,-34.185 66.645,-23.051c17.838,6.162 23.855,15.382 34.786,22.06c10.662,6.513 18.147,1.906 19.476,1.088c0.272,-0.167 3.993,-4.301 8.765,-3.861c8.49,0.783 -2.159,9.444 46.825,95.736c-0.979,1.244 0.221,3.445 -0.759,4.69c-1.157,1.47 -7.91,1.439 -8.609,1.436c-106.292,-0.481 -254.756,0.759 -258.818,-0.72c-4.939,-1.798 -3.55,-12.764 -3.558,-21.731c-0.294,-333.542 0.546,-333.503 0.277,-362.502c-0.071,-7.706 -3.214,-14.126 12.037,-14.169c176.392,-0.5 176.383,0.404 191.714,-0.045c6.086,-0.178 6.013,0.172 11.879,1.833Z" style="fill:#fec6a5;"/><path d="M1877.152,1678.938c1.407,0.137 2.824,0.159 4.231,0.297c27.069,2.643 22.348,31.508 71.001,59.83c54.845,31.926 115.776,22.863 141.334,12.938c58.188,-22.595 67.329,-48.459 79.75,-61.918c12.444,-13.483 27.76,-14.039 38.297,-6.583c22.611,15.998 12.068,36.805 -7.528,62.827c-9.052,12.02 -37.231,39.624 -72.837,56.064c-77.114,35.605 -146.17,15.372 -158.361,11.8c-39.633,-11.612 -57.774,-27.153 -66.808,-32.916c-10.26,-6.546 -37.013,-33.293 -46.078,-49.866c-5.559,-10.164 -16.555,-26.528 -1.272,-43.238c8.105,-8.861 13.869,-8.209 18.271,-9.234Z" style="fill:#1d686a;"/><path d="M1650.472,710.424c0.089,-19.159 -2.313,-47.324 14.803,-74.589c2.326,-3.705 18.081,-28.801 44.987,-31.09c24.547,-2.089 37.519,7.227 41.889,9.735c11.317,6.495 21.346,22.757 22.868,26.093c11.948,26.209 12.111,60.338 12.137,65.681c0.061,12.748 2.708,18.062 -10.06,18.156c-9.335,0.069 -74.933,0.556 -116.69,-0.025c-10.407,-0.145 -9.611,-3.596 -9.933,-13.963Z" style="fill:#fdf6e9;"/><path d="M2483.723,693.734c0.243,-15.782 -0.618,-24.983 8.309,-46.474c12.448,-29.966 34.393,-38.094 39.568,-40.069c11.828,-4.513 34.027,-3.906 48.945,4.498c14.67,8.264 21.551,17.91 28.579,32.647c7.39,15.497 11.415,45.59 11.21,70.256c-0.094,11.337 -4.827,9.926 -26.591,9.842c-104.158,-0.398 -104.904,1.149 -108.063,-1.81c-2.823,-2.645 -2.027,-15.395 -1.958,-28.89Z" style="fill:#fef6e9;"/><path d="M1868.641,1578.968c-6.022,-0.541 -31.298,-2.209 -55.02,-21.517c-53.106,-43.224 -24.262,-69.405 -7.249,-70.607c19.884,-1.404 25.928,10.756 33.921,18.688c20.751,20.593 46.715,15.724 61.104,7.745c9.048,-5.017 8.651,-5.575 15.265,-13.612c16.841,-20.461 47.016,-15.636 52.929,6.331c6.019,22.359 -35.779,76.855 -100.95,72.972Z" style="fill:#1c686b;"/><path d="M2197.937,1579.416c-14.006,-0.786 -15.567,-1.139 -16.89,-1.439c-31.814,-7.192 -49.074,-23.325 -54.883,-29.116c-48.304,-48.158 4.959,-80.618 30.468,-51.271c4.452,5.121 4.001,5.362 5.463,7.184c2.03,2.531 16.872,15.433 35.8,15.633c26.77,0.283 38.942,-17.887 44.7,-23.625c26.882,-26.791 67.686,2.581 39.672,39.346c-32.405,42.528 -73.868,43.074 -84.33,43.288Z" style="fill:#1c686a;"/><path d="M1522.999,2408.17c1.41,-0.127 2.83,-0.116 4.24,-0.242c4.328,-0.389 22.462,-2.018 48.879,-23.703c23.84,-19.569 37.844,3.623 36.919,13.586c-1.334,14.383 -15.615,23.682 -34.973,35.12c-32.273,19.068 -67.031,16.807 -71.985,16.259c-42.115,-4.66 -68.576,-28.7 -70.846,-30.198c-17.09,-11.284 -16.347,-26.408 -11.469,-32.985c16.014,-21.595 36.11,0.996 40.618,3.856c21.201,13.452 30.805,19.509 58.616,18.307Z" style="fill:#1c6f6f;"/><path d="M1893.755,2425.121c-23.151,-0.604 -23.134,-0.325 -25.139,-0.485c-18.957,-1.518 -24.557,-19.814 -19.479,-30.258c7.078,-14.558 25.979,-11.92 27.948,-11.918c9.329,0.01 114.783,0.118 116.612,0.164c20.752,0.531 25.789,20.92 19.349,31.037c-8.871,13.937 -23.155,10.937 -27.64,11.092c-7.328,0.253 -7.298,0.08 -91.651,0.368Z" style="fill:#1c6e6e;"/><path d="M1891.971,2285.435c-0.605,4.189 0.468,12.257 -9.419,22.078c-24.122,23.96 -59.258,-18.218 -31.892,-44.375c13.184,-12.601 37.157,-6.148 40.782,17.876c0.221,1.468 0.308,2.954 0.529,4.421Z" style="fill:#1b6c6d;"/><path d="M2015.842,2298.403c-2.955,5.537 -2.229,6.076 -7.014,10.139c-14.685,12.469 -37.847,3.655 -41.167,-18.786c-1.99,-13.453 7.392,-35.943 30.069,-32.502c15.281,2.319 23.068,22.01 19.659,36.185c-0.405,1.685 -1.142,3.279 -1.547,4.964Z" style="fill:#1b6b6d;"/><path d="M1553.77,2281.374c1.638,-6.925 0.824,-7.21 3.673,-11.867c11.347,-18.549 36.252,-16.632 44.028,3.66c11.287,29.454 -18.863,53.372 -38.451,34.728c-11.078,-10.544 -9.32,-19.247 -9.249,-26.521Z" style="fill:#1b6d6d;"/><path d="M2278.973,2285.371c-0.544,5.467 0.58,12.973 -8.951,22.213c-25.15,24.379 -58.269,-19.257 -31.755,-44.383c14.171,-13.429 37.671,-4.6 40.428,17.796c0.178,1.45 0.1,2.924 0.278,4.374Z" style="fill:#1c6d6d;"/><path d="M1424.797,2285.451c0.217,-1.474 0.316,-2.963 0.533,-4.436c4.398,-29.926 38.209,-31.108 47.359,-8c12.234,30.893 -23.061,57.754 -42.837,29.978c-5.51,-7.739 -4.972,-16.86 -5.055,-17.542Z" style="fill:#1b6c6d;"/></g></svg>