<?xml version="1.0" encoding="UTF-8"?>
<svg id="Graphic_8" data-name="Graphic 8" xmlns="http://www.w3.org/2000/svg" viewBox="0 0 960 960">
  <defs>
    <style>
      .cls-1 {
        fill: #212121;
      }

      .cls-2 {
        fill: #d69e9e;
      }

      .cls-3 {
        fill: #99d1d1;
      }

      .cls-4 {
        fill: #9fd1b3;
      }
    </style>
  </defs>
  <g>
    <path class="cls-2" d="M489.78,163.11c16.33-4.19,23.65,16.57,16.87,28.66-2,3.36-15.24,17.78-18.49,19.22-26.63,11.83-42.14-8.45-24.02-30.31,3.09-3.73,9.87-4.14,13.68-6.75,4.11-2.82,6.32-9.67,11.96-10.83Z"/>
    <path class="cls-2" d="M383.14,224.21c-2.97-10.59-4.48-21.56-7.07-32.21,24.79-5.38,43.16,38.3,7.07,32.21Z"/>
  </g>
  <path class="cls-4" d="M610.98,846.44c-3.41-16.78-19.68-36.36-22.62-39.35-33.71-34.35-118.96-10.41-152.65-6.71-9.44,4.83-22.56,19.15-33.32,19.33-29.79.49-53.61-23.88-83.67-14.13-2.61.85-9.7,4.17-12.5,7.52-7.12,14.13-21.52,54.64-22.86,58.47-3.94,11.2,1.67,25.66,11.21,32.39,10.46,7.38,17.64,5.19,29.15,5.42,33.05.65,93.28,16.15,106.94,16.45,12.82.28,31.19-7.5,44.8-7.89,28.8-.82,55.35,8.28,55.35,8.28.02,0,36.74-14.55,61.91-16.72,7.46-.64,17.43.73,24.84.17-4.5-9.48-6.45-62.52-6.59-63.24Z"/>
  <path class="cls-3" d="M806.1,515.22c-.67-2.26-27.55-105.61-27.78-106.38-4.83-16.55-21.32-82.39-25.93-91.13-1.01-1.92-19.4-11.66-34.57-3.14-36.72,20.62-86.46,31.16-97.71,38.08-16.37,10.06-17.09,24.13-28.85,30.6-4.39,2.42-20.06,6.94-26.92-3.08-10.31-15.03-32.69-5.89-34.29-4.32-16.03,15.72-55.79,17.41-75.82,7.8-11.41-5.47-130.41,26.77-130.41,26.77-2.32.87-124.66,29.52-124.66,29.52-9.21,5.94-8.75,30-8.24,33.83.62,24.96,9.58,138.33,33.95,152.64,1.96,1.15,18.2,4.89,20.78,11.85,4.56,12.28,6.91,36.47,5.04,44.41-10.06,42.68-6.91,77.77-1.59,85.94,7.04,10.8,18.08,14.93,35.05,12.99,0,0,38.04-.77,41.71-19.4,1.54-7.82,4.49-27.16,43.23-29.68,8.91-.58,44.47-2.36,47.83-2.34-1.34-.32,87.02-.9,125.81-2.91,27.67-1.44,33.68,7.63,33.68,7.63,2.81-.49,110.28-5.27,111.48-5.43,15.76-2.06,21.34-15.13,21.89-17.15,1.5-5.57,6.71-42.77-1.76-82.99-.22.72,16.61-50.29,22.69-60.75,1.66-2.85,81.09-34.06,75.39-53.34Z"/>
  <g>
    <path class="cls-1" d="M881.64,287.64c-9.44,47.43-68.8,93.88-106.46,122.43-12.58-27.55-15.17-61.54-16.09-91.41.17-1.93-1.45-4.07-3.23-3.76-8.62,2.4-7.13,29.46-6.8,39.47-2.36-12.47-4.55-27.13-2.57-39.8,2.66-2.7,9.94-1.7,13.56-4.06,40.46-25.22,20.6-35.41-5.95-4.8-61.08-4.64-72.77-15.97-114.17,24.61-3.19,2.53-13.34,3.28-11.91,9.13,4.51,6.37,15.51-.17,20.88-2.85,34.46-28.94,32.42-27.39,77.48-21-9.52,6.19-22.96,12.11-32.56,18.58-23.21,2.78-46.75,9.6-70.3,13.37-4.52-.17-7.51,5.27-3.12,7.81,4.55,2.11-.13,3.09-.17,6.02-.04,1.41,3.23,3.97.87,4.66-6.44,1.72-24.03.94-23.74,8.37,3.39,6.95,18.54.9,25.07.77,2.66-.16,1.51,2.06-.02,3.39-11.26,10.98-28.18,7.41-42.44,10.38-3.83.13-18.72,3.21-12.16,8.82,4.65,2.49,19.58-1.13,27.04-.87,2.38,5.83-22.31,3.77-26.83,8.24-4.36,2.55-9.84.62-14.47,1.4-1.55.04-3.69,1.05-5.09.17-.99-.91,1.93-3.78.94-5.51-6.15-1.12-15.38,6.36-20.08,8.47-11.36,6.39-23.72,19.1-36.8,22.22-28.5,4.4-58.71,1.34-87.47,3.38-6.27-.22,9.26-9.54,11.31-8.35,27.01.03,55.78,4.97,81.9-3.55,5.5-3.21-1.47-8.15,1.44-8.37,6.87.12,36.68-4.77,22.41-11.94-24.95,1.52-50.9,4.51-76.32,3.42-5,.16,1.21-3.87,2.49-6.25,2.58-2.51,3.51-5.78,6.88-5.05,21.86,6.23,49.19,6.01,71.69.63,4.02-.99,20.93-4.53,13.64-9.07-3.18.06-13.04-.04-16.79-.04-1.64-.3,1.43-6.58-1.4-6.11-16.9,3.51-32,10.63-49.84,6.95-6.73-.21-14.76-3.88-20.8-.65-26.4,23.59-88.63,45.42-88.06,84.21,18.74,6.45,40.79-.98,60.47-.16,5.18,1.47-10.59,7.87-11.62,8.5-15.18,3.93-52.4-3.96-56.56,6.77,2.45,9.44,26.18,1.88,33.99,3.45,22.53-.2,44.87.47,67.45-2.5,5.21-.09,39.47-6.87,38.01-2.56-49.79,8.47-104.53,12.18-155.55,7.84-.26-8.79,10.72-22.08,7.56-31.77-8.5-9.48-10.84,16.72-16.01,17.61-7.83-.99-25.51.19-28.28-2-.04-1.71-.55-5.34,2.56-4.65,6.32-.41,22.46,3.13,25.16-4.07-3.58-6.51.45-9.42,3.81-15.24,1.69-3.97,7.52-4.93,6.19-9.98-.64-3.7,5.3-3.12,4.74-7.04-.9-9.78,17.39-20.48,11.25-29.26-21.16-18.92-55.97.57-79.05,7.87-7.09,2.94-28.87,5.44-29.3,11.1,4.05,15.84-1.15,33.43-.3,49.82-5.63-3.92,1.67-42.63-6.39-45.89-9.32.56-7.23,14.07-6.52,20.75-.07.64-.43.61-.73.03-2.12-6.41-.63-14.39-3.52-20.48-4.69-9.08-7.59,4.62-6.37,8.85,3.37,39.76,3.27,80.09,7.34,119.59-10.54-34.86-10.29-71.78-13.76-107.63.65-6.09-.85-22.74-9.19-11.29-.47,1.92-.43,4.3-2.92,4.51-18.45-1.36,10.5,204.64,33.35,176.19,3.25,3.37,7.2,11,9.65,4.14.84-1.35-.36-4.97,1.77-4.98,14.74,4.43-3.27-27.95-3.24-32.73-7.74-32.04-9.39-67.64-10.56-100.2,2.9,1.2,13.52,137.88,27.25,114.42.62-11.34-7.02-31.24-6.57-43.02,3.4,3.32,3.99,35.56,13.8,20.54,1.23-10.71-4.21-23.28-5.56-32.94-4.64-8.42-13.92-138.76-1.34-113.01-9.61,45.6,3.51,93.1,12.83,137.5-7.48,34.06-18.09,68.19-28.1,101.71-4.1,23.59-21.76,51.63-14.3,77.2,5.12,17.96,24.2,27.64,42.25,31.34,2.83,3.12,42.61,15.62,34.85,18.13-19.77,5.54-19.51,33.29-26.77,48.09-4.82,11.44-15.17,19.82-19.51,31.55-3.2,8.97-8.52,27.98-9.21,39.77,2.95,24.21,9.41,6.06,13-6.13,3.94-20.64,10.92-38.6,24.3-54.94,8.05-15.4,8.18-35.91,19.27-50.26,2.13-2.54,4.42-.38,6.73.56,14.65,5.63,31.27,4.25,46.78,4.36,48.22,8.9,219.22-53.5,216.73,12.53.76,13.15,10.37,20.4,17.4,30.02,10.65,15.3,6.87,35.5,12.3,52.52,2.73,9.66,9.34,8.62,9.22-3.56,1.22-74.03-30.33-49.57-26.98-93.62.03-1.67,0-4.06,2.27-4.32,41.4-2.87,62.04-32.98,87.9-60.59,15.7-17.38-9.89-20.02-22.81-21.53-79.81,6.56-160.66,31.63-241.45,17.2-5.19-.86-6.79,3.99-2.68,6.44,24.59,16.33,58.81,4.82,86.83,6.31,21.66-.21,43.39-.33,64.81-3.96,1.28.04,1.02,1.52.81,2.47-3.73,6.01,3.99,36.32-2.2,33.62-77.25-11.36-159.11,25.09-235.93,13.09-10.28-2.91,5.89-34.29-3.04-38.27-6.17-2.01-5.29,10.51-11.13,8.8-6.79-2.45-61.33-26.94-68.56-26.57-1.62,0,.34,4.75-1.94,4.19-2.94-1.9-3.83-9.11-3.63-11.56,1.99-2.33,16.2,3.46,20.17,3.93,9.45,1.49,26.78,17.4,35.85,10.5,1.74-6.83-31.11-19.99-38.43-21.34-4.46-.73-22.37-1.83-12.95-5.88,12.45.89,30.42,12.55,43.69,12.62,2.74.45,3.65,7.27,6.49,8.01,1.45.04,3.45-3.21,5.76-2.45,9.82,1.04,20.59.13,30.56-.41,4.68-2.42,65.75,7.3,63.46-8-19.15-8.39-71.75.06-95.5.04-3.5-7.27,68.26-3.06,76.3-8.58,5.95-5.62,7.91.65,14.2.64-.62-13.58-24.56-33.3-29.85-47.17,81.48-5.27,178.97-3.42,261.91-21.84,16.98-2.87,34.59.64,51.3-4.31,11.38-4.27-8.21-7.41-11.87-7.29-7.99-.76-16.8.92-24.74-.3,5.38-1.24,56.74-.54,42.1-9.92-87.68-7.96-174.88,24.67-263.65,17.55-6.62,1.76-84.13-7.92-63.57,6.66,89.1,12.65,179.78-3.24,267.82-13.34-85.37,23.57-177.81,13.11-264.71,24.29-6.07-1.5-10.02-19.91-18.17-19.97-7.22,2.37,4.37,16.56-1.17,15.48-6.84-.17-29.17.3-32.66-.15-6.46-7.45,7.21-5.2,11.19-4.62,3.23-.41,14.88-.75,14.42-5.04-1.2-5.72-19.22-2.21-24.5-4.13-3.75-7.16,6.67-6.8,11.16-6.47,80.17,11.89,159.85-7.26,239.81-13.93,46.89-3.69,94.22-4.38,140.55-13.11,1.63-.34,2.3.35,1.74,2.21-4.14,13.84-7.86,23.76-9.59,33.85-2.61,10.2.05,23.05,1.62,37.47-64.83-4.57-125.05,28.63-189.85,22.43-31.02-1.85-62.1-6.79-93.22-4.6-4.65-.56-20.7,4.3-8.26,7.92,48.82.27,97.35,9.58,145.93,6.22,43.46-6.16,86.34-21.53,130.97-22.64,10.56.1,19.38-3.46,15.64,11.94-.17,1.19-.98,2.06-2.25,1.43-43.49-12.43-103.97,9.48-143.39,13.8-44.33,7.45-89.07-4.11-133.4-1.79-1.88-.06-4.23,1.46-3.77,3.24.89,2.59,4.23,3.35,6.71,3.7,21.36,2.01,43.08,4.66,64.6,6.22,70.22,8.99,137.14-22.27,207.04-19.18,6.22-1.06-.77,11.08,5.13,15.01,6.05.57,9.28-9.83,10.13-14.28,5.78-17.87-.47-35.97-2.98-53.76,28.96-154.67,64.86-74.35,110.29-138.93,27.92-43.83,31.37-135.67,47.76-175.91,10.65-11.2,17.92-19.2,23.4-32.74,4.93-8.96,17.66-56.75-2.22-29.17ZM428.67,415.84c2.2-3.82,13.74-.12,16.95.06,7.73.54,19.1,1.89,26.82,1.52.76-.27,14.24-2.99,11-.73-12.05,3.01-26.79,2.03-39.26,1.56-2.46-.4-16.8,1.56-15.51-2.41ZM305.42,416.11c2.15-1.68,14.87-4.46,18.52-5.7,4.91-.02,17.13-.02,18.99,0-.02,9.7-12.4,6.94-19.55,8.52-9.39.1-19.75,5.17-17.95-2.83ZM304.89,430.04c1.48-1.82,21.23-1.67,26.25-2.27,1.08,1.18-.95,4.73-2.64,4.66-1.59-.09-18,.19-23.92-.1-.12-.31-.06-1.83.3-2.3ZM304.62,438.7c1.99.48,5.9.85,7.88,1.63,1.98,2.25-10.02,2.9-7.88-1.63ZM303.95,457.66c2.81-.58,19.24-1.19,17.85,4.3-1.22,2.35-13.59-.53-16.57.13-1.79-.2-1.74-3.29-1.28-4.43ZM223.67,570.68c2.06,1.55,2.4,5.51,2.34,7.85-1.97-1.43-2.12-5.59-2.34-7.85ZM235.16,609.26l-.1-.05c-3.96-4.96-5.47-15.43-6.67-20.38.91.28,1.72,1.83,1.75,2.96.33,3.04,8.31,17.07,5.03,17.47ZM628.81,735.93c5.26-.24,17.79-5.22,22.19-2.15-7.92,1.75-17.73,3.41-25.89,3.18.23-.88,2.97-.91,3.7-1.03ZM768.11,481.12c1.78.69.34,4.72.77,6.28-1.78-.69-.34-4.72-.77-6.28ZM753.53,456.86l.06.12c.97,5.09,7.81,32.36,3.55,33.38-.68-3.44-5.62-32.48-3.61-33.51ZM744.55,385.27h.77s.79,3.92.79,3.92c-1.78-.47-1.68-2.46-1.56-3.92ZM743.74,415.41c.33.56.43,1.45.63,1.94.71,1.92,1.82,4.3,1.66,6.34-.94.32-1.49.24-1.52-.66.03-.58-2.92-9.52-.77-7.63ZM743.01,468.95c-1.46-11.99-2.81-25.79-6.92-36.64-.48-1.65,1.27.33,1.68,1.08,4.09,2.67,8.9,49.36,5.24,35.56ZM735.16,323.22h.11c1.93,9.92.55,21.72,3.69,31.96-4.07,4.96-4.15-29.24-3.81-31.96ZM723.83,329.33c5.64-4.8,1.75,12.91,2.58,13.79.15,1.53,1.78,5.58-.63,4.24.29-4.89-4.01-14.29-1.94-18.03ZM730.31,410.38l-.07-.07c-7.33-8.62-9.53-30.54-10.84-42.3.36,1.65,10.6,40.36,10.91,42.37ZM717.45,356.97c.66.67,2.18,6.96,2.03,8.67-.39,3.35-1.25-.23-.9-1.57-.62-2.07-2.81-4.87-1.13-7.09ZM697.36,387.46c9.06,35.57,17.66,72.89,22.77,109.26-10.97-30.71-26.05-85.68-22.77-109.26ZM720.96,497.61c.48.51,1.43,7.04-.77,4.72-.48-.51-1.43-7.04.77-4.72ZM676.99,348.46l-.04.16c-3.17,11.29-15.51,4.68-24.3,5.2,1.11-.14,23.37-5.47,24.34-5.36ZM668.33,362.48h-3.93c-.22-2.4,1.98-2.56,3.92-2.35v2.35ZM642.09,372.79c4.15-.6,19.32-2.29,20.69-1.71.85,3.61-1.23,5.79-4.84,4.41-6.04-.85-12.53-.9-18.45.38-7.38-.68-.23-3.06,2.6-3.08ZM622.3,389.14c7.01-7.6,18.76-4.02,27.8-4.74,2.78-.16,6.01-1.89,8.52-1.16,2.58.86.19,4.18-1.83,4.35-11.08,1.31-22.4,1.89-33.43,3-.87.09-1.56-.79-1.06-1.45ZM653.53,398.21l-.05.04c-7.26,1.25-20.11,1.96-26.68.76,8.56-.12,18.37-1.86,26.73-.8ZM617.26,399.42c-1.09,1.81-5.25.31-7.06.77,1.03-1.81,5.25-.31,7.06-.77ZM532.05,419.11c2.5-1.72,8.33-9.28,11.56-7.24,8.32,5.1,19.26,2.64,28,5.38,2.92,6.22-35.32,3.06-39.97,4.16-.33-.5,0-1.73.4-2.3ZM531.41,430.83c8.86-.3,18.27-2.69,26.98-1.31-.81,2.25-6.26,7.07-8.83,7.53-6.19-.75-34.77-.02-38.17-1.31,1.44-8.03,14.52-4.27,20.02-4.92ZM493.62,445.79c14.5-1.57,30.58-.67,45.3-.8,2.03,5.28-46.17,4.59-51.03,5.44-2.19-.84,4.3-4.54,5.73-4.65ZM497.66,459.06c2.44.49,31.91-2.71,24.7,1.29-18.64,2.24-37.68,2.31-56.43,3.48-4.15-.6,3.62-4.33,5.13-3.94,7.81,3.3,18.71-.6,26.6-.83ZM392.09,444.15c26.45-.92,56.57-2.18,82.19.18-27.38,8.12-60.06,3.86-89,6.88-4.85-1.46,4.51-7.51,6.81-7.06ZM419.89,461.43c-7.7-.26-56.03,8.36-46.42.6,24.68-3.42,54.31-3.22,77.33-3.8-9.03,5.7-21.06,1.6-30.91,3.2ZM484.88,473.26c-15.43,1.25-33.98,6.08-48.14,4.97,8.64-7.86,56.67-5.94,71.25-7.71,1.18-.31,3.13,0,2.08,1.29-6.97,5.77-17.2.14-25.19,1.45ZM333.55,502.61c49.14,2.42,101.37,1.67,150.66-5.29,3.38,2.02-2.97,3.78-4.48,4.08-42.89,9.12-104.78,11.65-147.75,10.31-3.51-.59.08-7.61,1.57-9.09ZM304.33,485.15c4.75,2.29,25.48-1.88,24.61,1.77-.56,2.93-9.09.55-11.23.49-4.2.46-19.01,2.7-13.38-2.26ZM303.14,497.69c6.41-.33,12.83-1.31,19.4-.86.76,4.86-16.3,1.35-19.38,2.36-.33,0-.22-1.5-.01-1.5ZM529.59,528.24c-51.55,4.71-100.32,19.67-152.28,21.35-20.32.65-40.77-1.22-61.01,1.36-5.77.75-1.07-10,1.98-9.82,103.43,15.63,217.57-32.06,315.01-18.41-1.18,2.73-4.08,4.46-7.02,4.41-32.53-1.27-64.02-1.43-96.67,1.11ZM609.11,536.76c-89.8.73-176.91,30.53-267,27.85-10.18.38-20.38,1.15-30.58,2.75-.82.13-1.7.07-1.72-.97.15-2.06-.05-6.27,2.36-7.16,100.44,8.1,196.69-28.47,296.95-22.49v.02ZM272.07,443.38c4.24-17.91-7.33-15.54.48-17.73,9.28-3.51,5.41,6.72,5.28,12.03-2.93,30.04,4.66,60.36,2.69,90.08-10.2-25.98-8.11-56-8.46-84.37ZM281.79,610.75v1.56h-2.35v-1.56h2.35ZM262.15,672.92c7.14,1.39,27.25,6.84,28.87,7.17,1.43,1.46,1.28,6.88-.23,7.53-2.66-.07-5.43-2.98-8.61-3.97-6.46-3.29-24.63-2.87-20.04-10.73ZM259.32,686.23c7.3,1.96,14.42,4.84,21.95,6.11,6.34.7,11.28.92,9.81,7.49.82,6.04-26.64-10.69-32.75-9.72-1.85-.47-.86-4.23.99-3.88ZM252.56,711.62c-.54-.26-1.59-.1-1.56-1.02.52-2.27,10.61,1.34,11.82,2.89-2.7.21-7.34-.85-10.26-1.87ZM266.01,704.59c-3.69-1.72-15.14-.61-12.24-6.05,2.25-.75,14.92,3.92,20.6,5.93,4.67,2.59,19.12,1.85,17.45,10.24-.18,4.36-20.57-10.63-25.81-10.13ZM291.98,726.29c-.85.89-6.33-2.58-7.7-3.52-1.06-.47-2.21-.53-1.65-1.96,3.14.5,11.01.43,9.35,5.48ZM290.37,673.21c-7.32-4.01-16.23-6.39-24.33-8.48.69-4.07,22.07,4.05,25.84,5.11,1.55,1.41,1.14,4.2-1.51,3.36ZM292.77,660.12l-.09.1c-3.63-.09-25.97-2.86-24.18-7.8,4.69,1.02,18.7,4.16,24.27,5.53.12.58.14,1.49,0,2.17ZM294.38,650.03c-5.99-.42-16.58-5.28-22.86-6.2-2.13-1-.27-4.6,2.04-3.65,3.22.76,18.4,5.34,20.27,6.52.65.53.74,2.88.55,3.32ZM274.16,628.92c5.29,3.08,21.3,1.71,21.78,8.6-2.62-.26-27.59-3.23-21.78-8.6ZM295.73,627.13c-2.72-1.12-19.02-4.65-18.64-7.7.6.02,19.19,3.68,20.36,3.88.39,1.12.16,3.99-1.73,3.82ZM297.5,617.81c-.35.37-7.83-2.48-6.28-3.92,1.29-.1,8.59,1.49,6.28,3.92ZM297.15,608.37c-.79-.24-4.21-1.55-3.56-3.12.91-.13,4.35.4,4.64.86.4.63.52,2.75-1.08,2.26ZM297.9,587.24c-3.55,1.36-17.28-2.9-10.12-7.77,4-1.26,13.44,2.62,10.12,7.77ZM289.7,567.52c2.16-.59,9.76.63,7.72,4.78-2.02.52-10.04-1.15-7.72-4.78ZM334.95,671.11c2.76-.24,8.01-4.73,10.71-3.23,2.31,3.32,30.39,43.27,32,45.66-23.55,3.01-48.31,2.19-72.03,5.58-3.4.79-4.87-6.26-1.73-6.88,2.88-.07,20.8-.49,30.37-.71,7.21-1.33,32.25.9,32.31-7.83-3.83-8.59-50.21,2.21-62.34-.23-.86-.08-1.38-.36-1.48-.77-.93-7.92,44.81.57,52.52-5.66,10.53-13.12-46.16-4.62-51.12-5.72-8.15-11.54,30.06-5.24,34.49-7.57,1.87-.37,5.86-1.55,7-3.33,2.43-9.59-33.73-3.91-39.07-3.89-2.92.46-3.62-3.55-1.95-4.93,9.12-1.17,21.34,1.18,30.32-.48ZM304.43,536.64c-3.47,1.35-11.37-2.42-13.47.99-2.76,6.46,9.42,5.69,10.5,8.89-.08,1.81-.55,5.37-3.3,4.73-5.36-.47-7.26-15.63-14.01-1.17-1.97,2.49-2.92-3.28-2-3.92,14.81-8.34,7.14-45.2,5.38-66.78-.85-18.75,0-37.73-.47-56.24.32-1.71,8.46-3.97,8.65-1.35-3.92,25.66-2.19,52.05-2.93,77.9.14,3.38-3.94,21.98,3.07,22.82,2.42.13,3.36-3.04,4.85-3.85,1.86-1.12,12.2-2.87,11.71.47-1.85,4.82-4.94,13.46-7.98,17.5ZM685.91,607.64c-124.09,7.66-247.96,33.21-372.16,25.3-6.01-.41-5.3-5.68-1.58-8.5,110.08,1.52,219.99-9.02,329.09-22.48,20.44-1.75,47.26-.06,66.77-2.17,2.72,11.02-14.58,7.49-22.12,7.85ZM708.5,591.08c-61.25-4.55-120.89,7.6-181.57,12.55-70.38,13.31-141.49,5.84-212.18,13.45-5.33,1.55-5.59-8.6-1.21-9.27,128.11.21,254.9-21.88,382.88-19.23,6.07-.09,11.44-.24,17.02-2.24.85-.13,1.69-.3,1.94.51-.51,4.32-2.84,5.29-6.88,4.23ZM740.23,554.83c-10.26,5.61-18.34,14.08-21.59,25.88-.41,1.47-1.18,2.57-2.85,1.92-43.44-13.42-91.25.84-135.01.73-42.22-1.45-83.76,2.36-125.45,9.42-46.46,1.15-95.67,5.56-141.78,3.36-3.66.3-3.52-4.35-.64-5.36,82.06,1.75,163.25-7.55,244.23-19.73,23.41-1.73,47.92,1.69,71.41,1.29,17.83-1.61,36.2-2.87,54.03-2.44,5.05-.24,12.2-.27,15.62-4.12-.29-12.51-73.11-1-86.84-3.91-100.74-3.52-200.37,24.31-301.06,19.6-.43-1.78-1.79-8.4,2.24-7.33,103.03,10.22,201.87-31.25,302.83-25.26-11.93,28.85,15.08-5.25,20-12.03.67-.75,1.32-.94,2.11-.25,7.14,7.04,21.43,3.79,29.95,2.72,5.28-1.36,12.88-1.49,15.44-5.97,2.71-10.47-36.73-.34-44.37-.11.09-3.49,19.17-22.01,15.72-27.12-4.3-4.37-9.34,3.98-12.35,5.31-3.57,1.05-8.31-2.49-12.48-1.53-89.54-2.19-166.58,19.76-280.13,25.36-14.16-.14-24.12-1.75-26.97-5.57-2.21-1.91.28-9.32,4.92-8.39,84.56,4.57,167.12-18.71,251.68-15.15,14.13-.72,30.64,3.07,44.01-3.52,4.21-2.97-5.3-4.61-7.22-4.8-38.9-3.79-81.56,1.76-118.35-.87,10.02-8.62,26.32-22.81,36.26-31.29,35.45-4.96,73.18-4.9,108.61-4.3,3.2.31,8.33-2.81,9.5-4.16,1.38-13.07-92.71-2.8-102.51-3.04-.83-1,1.63-4.05,2.88-4.97,11.47-11.12,26.87-24.68,40.02-35.18,12.31-9.22,43.3-4.54,61.14-5.48,4.53-1.45,5.37,6.24.59,5.77-20.24.51-41.11-2.09-60.81,2.7-3.03,15.12,51.17,3.61,62.44,7.48.97.31,0,.6-.7.77-21.21,3.98-46.18-.7-67.43,4.62-16.95,14.48,63.63,5.53,69.78,4.99-10.06,8.34-78.74-2.5-80.71,11.35-1.07,8.14,22.2,2.04,27.23,2.51,18.22-.53,36.49.47,54.62-2.77,2.88-1.33,6.08,3.07,7.68,2.22,8.89-32.43-4.85-77.42,28.34-98.73,1.97.81-.36,7.09-.08,9.94.02.67.04,1.88-.88,1.15-11.89-9.34-4.86,44.37-5.17,53.49-.04.65-.42.92-.69.35-1.06-9.12-3.94-36.38-7.95-35.62-12.34,19.89,5.61,66,9.24,88.66,5.55,26.43,4.35,60.57,27.09,78.78,8.6-1.83-5.61-21.45-6.31-26.95-5.48-15.89-7.26-33.48-9.3-49.75,10.85,24.64,9.44,58.16,26.57,80.56,3.52,4.1,9.41,6.64,9.76-1.07,1.56-.75,5.35,4.37,3.71,5.82ZM746.88,551.97c-3.2.32-1.99-2.76-2.8-4.81-16.77-67.15-31.74-134.8-43.7-202.66-.41-1.49,2.39-3.81,3.58-3.99,4.61,28.82,10.21,57.44,20.53,85.7,12.11,40.5,9.01,86.02,25.45,124.28-.06,1.15-2,1.41-3.06,1.48ZM757.49,548.24c-1.31-18.41-14.78-50.67-12.64-70.76,3.97,22.03,8.41,45.15,14.41,66.71.65,1.88.64,3.91-1.78,4.05ZM767.32,469.16c-3.14-2.78-2.55-10.84-3.72-15.52,2.41-5.54,3.6,14.68,3.72,15.52ZM769.62,543.26c-2.16,1.66-3.75-7.8-3.04-7.92,1.63.07,3.86,6.96,3.04,7.92ZM768.89,498.7c-.23-2.73.14-6.25.01-8.93.08,1.25,1.4,10.89,1.48,13.35-1.29-.4-1.38-3.43-1.49-4.42ZM785.95,536.24l-.13-.11c-11.08-33.39-4.02-73.08-17.49-106.63,9.09,14.74,12.64,36.3,14.07,53.61-.19,12.41-1.39,47.31,19.52,35.45,8.31-2.49-13.32,19.29-15.97,17.68Z"/>
    <path class="cls-1" d="M457.76,39.21c33.33,5.8,63.86-1.48,92.64,21.28,56.37,40.67,67.95,112.07,74.95,176.45.4,1.69.93,6.15,3.29,6.15,20.6-85.63-36.86-211.62-136.3-213.72-3.54.1-25.4-.46-28.28.79-5.79-1.31-14.08,5.92-6.3,9.05Z"/>
    <path class="cls-1" d="M867.07,247.41c-49.84-21.88-106.69-12.93-159.07-6.63-18.99,0-57.97-20.1-72.22.77-7.86,11.5,12.79,3.56,18.03,3.1,17.09-1.48,31.42,5.33,47.87,6.31,56.37.3,118.4-17.97,170.66,11.61,6.02,2.59,16.03,16.95,20.68,9.56v-4.71c-5.83-9.33-16.02-15.54-25.95-20.01Z"/>
    <path class="cls-1" d="M82.46,411.85c36.4-16.84,60.7-47.09,101.78-56.2,39.82-7.97,83.25-12.23,119.94-30.13,1.78-.08.94.11,1.17,1.21,1.69,17.34,6.85,33.54,18.1,47.11-5.97.9-83.72,33.56-60.5,38.58,20.81-12.08,44.92-21.17,65.79-32.55,2.91-.59,7.8,3.84,10.93,5.27,2.26,1.04,13.73,5.23,15.16,3.2,2.24-3.17-8.17-9.47-10.18-11.33-50.18-46.69-15.82-93.85-4.93-148.73,9.89-49.82,6.63-120.05,41.46-160.44,2.89-3.35,17.2-15.2,16.05-19.11-1.85-6.3-16.03,5.33-18.37,7.36-46.6,40.29-41.07,130.67-55.63,186.34-4.93,18.85-12.63,37.9-16.05,57.02-.68,3.8-.64,14.23-2.54,16.32-.85.93-20.79,7.48-23.8,8.41-71.29,17.46-136.13,15.93-191.92,73.62-1.65,1.64-14.3,15.22-6.45,14.03Z"/>
    <path class="cls-1" d="M501.21,339.09c3.03,14.5,14.25,32.06,28.85,36.75,2.81,1.03,10.27,3.73,9.43-1.57-6.37-8.18-14.31-14.99-19.49-24.11-17.72-31.19,3.91-74.04,11.25-105.51,6.23-27.27,9.77-59.05,3.93-86.44-1.9-4.73-7.06-4.1-8.09.57-.35,30.15-1.37,63.48-11.11,92.4-.8,1.18-4.65,1.37-6.74,2.88-6.78,4.89-16.7,20.66-24.33,27.53-47.58,34.94-89.97-11.27-101.76-57.37-27.39-145.2-31.16,58.02,49.79,77.09,4.26,1.04,12.58.79,14.47,4.39,7.65,20.92,6.89,43.53,8.03,65.03.35,4.76,1.79,17.49,6.97,7.77,9.64-20.34.78-53.51-4.57-73.66.55-1.85,3.95-1.09,5.64-1.47,20.68-4.67,32.15-15.99,44.99-32.01-3.25,22.34-12.9,43.74-7.25,67.74Z"/>
    <path class="cls-1" d="M245.66,638.24c4.86-.41,9.96-1.04,5.51-6.69-4.47-5.67-16.72-5.44-23.31-7.33-20.08-9.98-21.23-54.9-26.09-75.26-1.59-24.42-19.66-98.9,2.48-112.78,35.76-12.93,17.92-22.67-6.46-8.82-11.65,13.1-32.96,3.82-46.78,9-14.38,13.15,28.04,8.73,33.36,5.48-2.08,14.81-2.07,30.19-1.6,45.2.09,2.79,2.7,9.23-1.16,9.82-19.37-3.29-38.43-13.87-56.75-21.05-11.5-4.53-35.38-9.79-42.62-19.45-5.74-7.66-2.76-13.89-4.91-21.81-2.97-10.97-9.15,1.26-10.02,7.27-4.26,30.43,32.57,37.39,54.41,44.98,13.88,5.3,26.9,11.83,41.27,16.08,3.86,1.14,19.96,3.98,21.44,6.06,2.63,18.49,4.12,37.17,7.26,55.59,5.46,32.63,10.76,77.94,53.96,73.7Z"/>
    <path class="cls-1" d="M451.46,110.76c3.65.7,7.56-1.9,8.69,3.85.39,1.99-3.27,1.06-4.92,1.39-4.58.93-14.16,3.8-15.35,9-3.18,12.65,14.84.47,21.24,1.21,18.08,5.08,41.82,18.58,61.88,12.79,1.39-.41,4.45-1.41,3.09-3.51-55.37-16.23-57.91-23.29-79.41-74.98-4.76-9.3-10.44-7.79-9.13,2.85,1.6,12.93,10.39,29.49,16.28,41.06-12.78-7.73-14.45-26.17-22.49-37.78-12.11-17.5-.77,42.33,20.12,44.13Z"/>
    <path class="cls-1" d="M364.3,131.91c-.5,7.26.69,25.8,11.8,22.8,9.43-3.69,30.22-13.11,5.15-13.71-4.79.55-6.33,4.32-5.94-4.38,2.42-33.99,19.03-48.59,43.09-67.68,3.2-15.94-26.63,7.28-30.16,10.69-12.8,12.44-22.71,34.49-23.93,52.28Z"/>
    <path class="cls-1" d="M612,311.26c-.65,3.41-1.89,9.88-1.83,13.08.08,4.23,4,24.21,8.12,12.06,4.33-12.79,4.63-26.75,10.86-39.42,3.68-11.67,31-27.82,17.19-38.19,4.69-1.73,27.24.27,23.16-8.64-3.41-7.45-30.48-1.22-31.03,7.52-.3,4.83,4.62,1.22,7.07,2.29-16.04,15.22-29.23,28.62-33.55,51.3Z"/>
    <path class="cls-1" d="M362.58,360.66c-10.35-32.84-30.16,8.59,19.78,36.39,3.64,2.03,18.2,3.9,14.93-2.36-6.74-12.88-30.2-19.74-34.71-34.04Z"/>
    <path class="cls-1" d="M448.9,225.15c-8.15,5.18-23.53,6.92-31.8,10.22-2.74,4.8,4.05,8.82,8.27,9.07,6.92.41,29.35-8.79,34.78-13.55,3.42-3,9.29-12.41,2.57-14.39-6.04-1.78-9.34,6.07-13.81,8.64Z"/>
    <path class="cls-1" d="M552.06,374.27c3.98,3.97,22.77,12.92,21.85,2.13-.57-1.91-14.35-12.8-17.9-15.9-4.81-4.2-9.41-28.81-15.62-18.72-5.61,8.38,5.18,26.51,11.67,32.49Z"/>
    <path class="cls-1" d="M414.57,389.98c2.88-.06,7.72-1.49,4.77-5.17-1.05-1.43-15.61-8.11-19.17-10.68-1.77-1.28-4.58-3.44-6.06-4.94-1.76-1.78-8.09-12.8-10.61-5.18-2.63,13.84,18.91,26.39,31.07,25.97Z"/>
    <path class="cls-1" d="M468.82,174.36c7.77-2.49,4.53-23.33-.29-27.68-4.1-3.71-10.65-1.23-11.5,4.12-1.2,8.05.25,25.5,11.78,23.56Z"/>
    <path class="cls-1" d="M584.29,374.64c2.98,1.06,14.16,2.31,11.4-2.75-.33-.61-8.58-7.57-10.25-9.39-5.18-3.45-9.13-17.28-14.74-16.4-10.94,6.89,5.61,25.56,13.59,28.55Z"/>
    <path class="cls-1" d="M402.56,189.41c5.8-4.73,2.46-28.24-6.87-26.95-14.19,1.97-3.72,35.58,6.87,26.95Z"/>
    <path class="cls-1" d="M413.98,205.15c10.99,6.35,21.2-17.26,16.18-25.2-5.61-9.22-9.41,4.9-11.53,8.65-2.42,4.29-10.09,11.44-4.65,16.55Z"/>
    <path class="cls-1" d="M537.91,925c-13.81-8.55-28.2-15.14-39.69-27.49-3.33-3.91-13.43-20.67-14.56-7.5,4.19,19.51,34.75,42.85,55.03,40.49,4.47-.84,1.88-3.85-.78-5.5Z"/>
    <path class="cls-1" d="M571.06,847.47c-34.09-7.83-154.99,3.46-153.24,15.07,2.46,16.31,72.1-9.24,92.96-6.7,24.34,2.96,49.09.71,73.49-1.55,3.03-3.61-11.39-6.42-13.21-6.82Z"/>
    <path class="cls-1" d="M372.34,828.51c-4.59-.4-7.04,6.31-8.73,9.78-6.16,14.41-27.88,57.68-5.67,64.64,4.66,1.46,4.31-22.09,7.53-32.93,1.59-9.61,20.32-37.79,6.87-41.49Z"/>
    <path class="cls-1" d="M382.91,845.82c-10.09,7.87-11.54,44.2-6.87,56.04,1.72,4.24,6.05,9.47,7.68,2.13,3.76-16.86,2.82-37.47,5.64-54.74-.31-3.61-3.25-4.38-6.46-3.42Z"/>
    <path class="cls-1" d="M333.17,863.02c-5.67-3.21-25.41-13.42-30.36-12.53-13.41,7.07,12.31,17.86,18.64,17.97,3.39.26,17.99-1.9,11.73-5.44Z"/>
    <path class="cls-1" d="M599.62,468.58c-10.02,1.7-74.63-7.57-68.56,8.4,3.04,3.3,12.5.37,16.68.21,14.43-.55,28.91,1.78,43.2,1.63,17.24-.18,34.67-3.01,51.86-3.99,6.26-.61,32.89,4.06,22.2-8.07-20.7-4.47-44.31,1.56-65.38,1.81Z"/>
    <path class="cls-1" d="M698.56,529.06c-2.18-4.03-7.98-20.91-11.81-21.27-13.29,1.19,7.71,31.88,7.51,36.96-6.4.12-76.61-3.74-65.57,8.61,2.33,3.38,12.41,2.53,16.49,2.43,16.55-.85,40.79-4.54,56.59-2.45,4.47,1.93,6.76,8.11,13.69,8.7,6.25.54,7.72-1.56,5.5-3.93-9.31-9.91-16.68-18.45-22.41-29.05Z"/>
    <path class="cls-1" d="M650.68,483.44c-19.45-1.5-40.67,1.49-60.56.85-21.08-.11-43.93-6.34-64.56-.21-3.92,2.4-1.87,5.97,2.52,6.48,34.99,2.62,70.89,3.63,106.04,2.31,5.81-.23,20.96,1.68,24.54-2.55,4.21-4.97-4.44-6.6-7.98-6.87Z"/>
    <path class="cls-1" d="M532.84,687.77c39.03-3.68,75.86-19.91,115.46-21.23,4.8-.51,42.59-.08,34.9-8.2-34.63-6.39-72.98,3.23-107.12,10.61-59.57,21.42-133.26-3.18-192.97,9.73-2.56.52-14.08,3.3-8.15,7.43,2.85,1.99,21.8-.6,26.61-.76,44.01-1.46,87.92,4.6,131.27,2.42Z"/>
    <path class="cls-1" d="M396.76,702.37c50.79-3.57,103.2-1.34,154.11-3.63,19.93-.9,42.26-8.08,62.3-11.55,20.59-3.57,44.94-4.89,64.74-9.89,10.89-2.54,14.42-8.32.23-9.98-43.09,3.18-86.19,15.55-128.81,21.25-40.94,2.15-82.32.47-123.37,2.33-8.49.38-25.88,1.35-33.59,3.33-10.41,2.67-4.12,7.97,4.39,8.15Z"/>
    <path class="cls-1" d="M376.17,764.24c.52,4.37,1.73,10.2,7.3,9.91,8.78-.45,6.13-13.91,7.08-19.69,1.44-2.02,17.01.49,15.23-8.01-1.39-6.61-17.02-6.25-22.24-6.07-22.43,1.07-44.76,2.87-67.6,2.38-3.22-.04-10.53-2.29-12.01,2.89-.53,17.4,58.09,8.57,70.59,9.2,2.79.6,1.29,6.42,1.65,9.38Z"/>
  </g>
</svg>