<?xml version="1.0" encoding="UTF-8" standalone="no"?><!DOCTYPE svg PUBLIC "-//W3C//DTD SVG 1.1//EN" "http://www.w3.org/Graphics/SVG/1.1/DTD/svg11.dtd"><svg width="100%" height="100%" viewBox="0 0 1024 1024" version="1.1" xmlns="http://www.w3.org/2000/svg" xmlns:xlink="http://www.w3.org/1999/xlink" xml:space="preserve" xmlns:serif="http://www.serif.com/" style="fill-rule:evenodd;clip-rule:evenodd;stroke-linejoin:round;stroke-miterlimit:2;"><g id="Background"><path d="M615.489,122.89c0.896,0.109 6.422,0.784 10.938,2.78c8.559,3.784 13.428,9.655 14.283,10.659c7.238,8.504 9.287,18.449 9.648,20.203c2.147,10.419 -0.733,16.537 2.064,17.246c1.95,0.494 8.296,-0.698 18.074,0.742c3.501,0.516 3.532,0.241 6.994,1.017c3.391,0.76 16.937,2.656 34.27,12.488c0.621,0.352 4.899,2.779 7.581,4.71c0.196,0.141 8.324,5.424 15.009,11.92c4.404,4.279 13.417,12.675 22.024,27.915c14.141,25.036 14.759,43.717 15.02,56.932c0.053,2.698 0.064,46.463 -0.825,55.004c-0.727,6.987 -0.225,7.016 -1.131,13.985c-0.339,2.608 -0.136,3.99 -0.718,8.043c-0.437,3.045 -3.393,34.458 -15.453,64.875c-4.16,10.491 -7.059,15.801 -11.647,23.167c-0.913,1.465 -4.21,6.04 -4.584,6.559c-0.141,0.195 -2.635,3.109 -2.725,3.209c-2.184,2.409 0.464,2.401 6.611,10.826c1.489,2.041 1.557,1.978 2.954,4.074c10.131,15.207 12.226,26.184 13.424,31.305c2.279,9.74 2.221,18.723 1.823,28.932c-0.191,4.913 -0.729,5.969 -0.928,7.977c-0.947,9.537 -5.711,24.72 -12.278,36.272c-0.44,0.775 -4.246,7.47 -5.722,9.559c-2.054,2.909 -6.295,9.664 -17.733,22.175c-1.566,1.713 -8.99,9.833 -20.784,20.242c-4.384,3.869 -15.71,12.955 -17.128,13.861c-0.58,0.371 -0.517,0.444 -6.939,5.091c-9.062,6.557 -18.245,11.38 -19.9,12.249c-27.716,14.556 -43.194,13.186 -62.21,13.206c-18.638,0.02 -228.855,0.246 -232.979,-0.083c-8.537,-0.68 -19.091,-2.738 -21.08,-3.332c-4.757,-1.419 -14.937,-3.629 -30.669,-12.673c-0.354,-0.204 -7.916,-5.033 -9.036,-5.856c-4.485,-3.294 -34.755,-24.574 -45.989,-65.74c-4.627,-16.953 -3.633,-28.904 -3.72,-31.933c-0.121,-4.194 -0.046,-123.279 -0.039,-133.999c0,-37.333 0.001,-74.666 0.001,-111.999c0.004,-30.832 0.27,-33.129 0.602,-35.989c0.521,-4.496 0.31,-4.507 1.071,-8.981c0.428,-2.514 0.279,-2.529 0.888,-5.018c0.262,-1.069 2.302,-13.887 10.539,-29.227c0.717,-1.335 5.599,-10.426 10.162,-15.978c1.139,-1.386 3.265,-4.308 6.39,-7.682c3.31,-3.574 32.259,-37.332 79.862,-37.748c10.018,-0.088 11.478,0.39 11.724,-1.412c0.405,-2.964 -1.793,-17.328 6.887,-31.202c12.934,-20.674 40.525,-25.227 58.226,-7.603c9.179,9.139 11.164,18.838 12.302,23.803c1.244,5.427 0.146,14.8 1.065,15.852c0.857,0.982 1.194,0.466 97.791,0.535c22.946,0.016 22.935,-0.128 23.084,-0.184c1.527,-0.573 0.305,-1.29 1.232,-14.134c0.623,-8.625 4.03,-14.736 7.537,-20.134c1.168,-1.798 4.823,-5.62 5.101,-5.949c0.703,-0.83 4.728,-4.125 7.274,-5.574c9.881,-5.625 16.066,-5.095 21.763,-4.988Z" style="fill:#1f686a;"/><path d="M278,264.282c2.735,-11.83 9.166,-22.862 11.294,-25.919c0.746,-1.072 22.867,-37.757 68.237,-42.41c2.729,-0.28 13.238,-0.283 13.956,-0.231c1.109,0.079 1.456,0.782 1.519,0.909c0.256,0.518 -0.129,6.169 0.38,9.886c2.32,16.939 12.608,23.892 15.243,25.795c5.662,4.088 15.478,7.731 21.889,6.263c11.346,-2.598 11.917,-13.32 8.201,-18.226c-3.723,-4.916 -6.806,-4.103 -11.208,-4.914c-1.095,-0.202 -8.457,-1.558 -10.568,-9.063c-0.194,-0.688 -1.214,-4.314 -0.871,-8.894c0.16,-2.131 1.895,-1.785 3.421,-1.775c5.525,0.034 171.888,0.019 172,0.025c0.156,0.01 1.361,0.085 1.734,0.889c0.83,1.792 -1.84,12.488 5.447,24.779c8.219,13.863 23.116,17.288 27.81,17.458c13.022,0.471 17.22,-11.813 12.257,-18.521c-2.82,-3.811 -5.362,-4.157 -8.282,-4.43c-15.275,-1.428 -14.392,-13.836 -14.483,-16.401c-0.145,-4.065 1.046,-3.811 2.521,-3.813c15.334,0.005 30.668,0.011 46.002,0.016c7.618,-0.005 39.875,-2.846 70.141,22.626c33.695,28.359 33.812,63.139 33.931,72.168c0.813,61.441 -3.469,83.677 -7.657,100.102c-0.904,3.546 -6.687,26.229 -18.516,41.824c-0.753,0.992 -6.105,8.049 -10.809,11.205c-4.794,3.216 -5.107,2.849 -7.209,2.281c-19.814,-5.357 -30.154,-4.811 -44.91,-4.74c-1.568,0.008 -2.351,0.47 -4.941,0.652c-6.88,0.483 -17.282,2.974 -24.119,5.433c-21.563,7.755 -33.735,21.408 -35.708,23.436c-4.232,4.352 -4.821,5.613 -5.553,6.522c-9.267,11.524 -10.453,17.704 -13.991,22.915c-1.575,-0.026 -82.486,-0.029 -89.659,-0.03c-146.999,-0.007 -156.659,-0.086 -158.042,0.157c-4.174,0.733 -10.64,2.271 -16.104,8.104c-5.292,5.65 -6.646,11.642 -7.246,15.078c-0.537,3.078 -0.305,3.098 -0.276,39.058c0.014,18.3 -0.469,23.572 2.961,32.898c3.212,8.736 9.519,15.587 11.661,17.159c0.188,0.138 5.146,4.345 8.987,6.064c4.12,1.844 5.961,2.792 14.027,4.094c2.594,0.419 2.595,0.404 57.033,0.391c183.074,-0.041 183.072,0.188 190.039,-0.268c1.694,-0.355 8.915,-1.189 14.953,-7.342c0.101,0.217 -0.544,0.347 -0.443,0.564c0.285,0.612 1.051,0.887 1.392,1.47c0.588,1.006 -2.666,2.772 -2.959,2.931c-3.721,2.019 -3.617,2.222 -8.008,3.812c-1.385,0.501 -2.104,0.007 -2.282,-0.003c-1.608,-0.085 -1.173,0.674 -1.957,2.097c-2.42,4.39 -2.357,4.425 -5.347,8.434c-1.31,1.756 -1.167,1.86 -3.166,3.919c-6.65,6.852 -11.214,10.058 -18.322,13.587c-1.842,0.914 -1.947,0.615 -3.783,1.503c-0.393,0.19 -0.734,0.476 -1.12,0.679c-1.743,0.918 -1.866,0.603 -1.995,0.713c-0.44,0.374 -0.554,1.043 -0.994,1.417c-3.515,0.057 -3.491,0.274 -7.009,0.257c-18.791,-0.093 -147.464,-0.021 -156,-0.046c-23.926,-0.069 -25.568,0.46 -37.928,-1.729c-22.733,-4.025 -38.49,-16.335 -39.024,-16.664c-2.355,-1.455 -2.124,-1.768 -4.003,-2.992c-3.195,-2.082 -13.101,-12.155 -15.12,-14.883c-2.462,-3.327 -3.177,-4.033 -3.425,-4.4c-7.831,-11.616 -10.443,-19.294 -11.678,-22.593c-3.153,-8.425 -5.293,-19.865 -5.57,-29.078c-0.234,-7.777 0.071,-162.83 0.099,-176.989c0.202,-102.815 -0.311,-102.858 0.767,-109.984c0.526,-3.477 0.653,-7.52 2.385,-13.235Z" style="fill:#e2ece1;"/><path d="M515.378,293.962c4.152,1.292 9.126,2.655 17.886,7.014c7.052,3.509 14.891,9.737 16.102,10.699c10.733,8.527 17.558,18.694 19.816,22.033c0.475,0.702 5.63,9.193 7.681,14.66c2.408,6.417 7.98,18.831 7.479,41.126c-0.292,13.036 -2.994,23.315 -6.8,33.023c-6.484,16.54 -18.925,29.082 -20.023,30.004c-0.26,0.218 -0.2,0.271 -3.076,2.919c-6.563,6.043 -15.017,11.422 -20.804,14.338c-56.239,28.331 -128.211,-2.12 -139.145,-69.276c-2.597,-15.949 -0.27,-29.453 0.164,-31.974c1.176,-6.828 2.285,-13.36 8.943,-26.972c7.042,-14.396 21.422,-27.793 24.852,-30.11c2.267,-1.531 2.024,-1.84 9.264,-6.6c2.278,-1.498 10.177,-5.701 14.737,-7.456c2.936,-1.13 29.001,-12.509 62.923,-3.428Z" style="fill:#fec4a4;"/><path d="M575.159,500.129c-1.02,4.448 -2.544,7.025 -3.742,11.34c-0.435,1.567 -0.467,1.532 -1.058,3.059c-1.408,-0.399 -1.39,-0.483 -2.851,-0.44c-3.679,0.108 -3.677,-0.109 -46.011,0.011c-3.66,0.01 -2.906,1.551 -2.889,3.401c0.064,6.96 -0.137,6.95 -0.067,87.001c0.002,2.152 -0.331,4.784 0.854,5.215c0.975,0.355 36.606,0.057 62.116,0.173c0.168,0.001 1.788,0.008 2.066,-0.345c0.235,-0.299 -0.053,-0.827 0.182,-1.125c0.041,0.078 0.248,0.981 1.074,2.059c2.147,2.801 1.881,2.97 3.939,5.827c0.168,0.233 1.229,1.706 1.566,3.223c0.201,0.904 0.204,0.894 0.179,0.969c-0,0 -1.82,2.152 -1.978,2.339c-6.967,0.456 -6.965,0.227 -190.039,0.268c-54.438,0.012 -54.439,0.027 -57.033,-0.391c-8.067,-1.302 -9.907,-2.25 -14.027,-4.094c-3.84,-1.719 -8.799,-5.926 -8.987,-6.064c-2.142,-1.572 -8.449,-8.423 -11.661,-17.159c-3.43,-9.326 -2.946,-14.599 -2.961,-32.898c-0.028,-35.961 -0.261,-35.98 0.276,-39.058c0.6,-3.436 1.954,-9.428 7.246,-15.078c5.464,-5.833 11.93,-7.371 16.104,-8.104c1.383,-0.243 11.043,-0.163 158.042,-0.157c7.173,0 88.083,0.004 89.659,0.03Z" style="fill:#42989b;"/><path d="M603.492,615.493c2.701,-3.546 2.614,-5.542 2.407,-8.04c-0.642,-7.737 -15.285,-22.647 -17.442,-53.95c-0.121,-1.76 -0.828,-12.009 0.795,-22.043c5.377,-33.244 21.761,-46.347 29.051,-52.22c0.348,-0.28 2.636,-2.124 4.49,-3.316c5.066,-3.259 5.058,-3.255 10.501,-5.87c31.063,-14.925 80.598,-8.971 98.405,34.361c12.714,30.938 0.783,55.579 -4.294,66.036c-0.033,0.069 -5.792,11.769 -16.075,23.91c-12.841,15.163 -18.92,18.748 -25.651,25.407c-0.233,0.231 -3.669,3.63 -3.718,1.738c-0.031,-1.19 2.164,-2.154 6.034,-7.653c9.592,-13.634 14.682,-22.341 19.608,-34.311c19.348,-47.014 -10.53,-81.928 -46.064,-76.733c-23.464,3.431 -33.525,21.885 -34.466,23.432c-11.725,19.271 -5.238,36.866 -2.284,42.104c11.982,21.25 37.454,22.745 50.53,11.929c9.441,-7.809 4.49,-14.577 1.157,-15.712c-5.071,-1.726 -6.627,2.266 -12.953,4.026c-5.981,1.665 -10.754,-0.638 -11.145,-0.796c-10.857,-4.39 -16.114,-21.045 -5.193,-35.522c9.826,-13.026 26.559,-13.648 36.528,-7.112c19.983,13.101 14.182,43.066 -3.929,67.541c-5.731,7.745 -12.118,15.204 -24.442,26.626c-8.69,8.054 -22.065,18.549 -33.08,24.773c-15.596,8.813 -28.016,10.808 -32.726,11.615c-10.52,1.803 -33.169,1.008 -35.031,0.903c0.44,-0.374 0.554,-1.043 0.994,-1.417c0.129,-0.11 0.252,0.205 1.995,-0.713c0.386,-0.203 0.727,-0.489 1.12,-0.679c1.836,-0.888 1.942,-0.589 3.783,-1.503c7.108,-3.529 11.672,-6.735 18.322,-13.587c1.999,-2.059 1.856,-2.163 3.166,-3.919c2.99,-4.01 2.927,-4.044 5.347,-8.434c0.784,-1.423 0.895,-4.245 2.503,-4.161c0.177,0.009 0.434,-0.071 1.819,-0.572c4.391,-1.59 2.808,-1.207 6.528,-3.226c0.168,-0.091 1.2,-0.91 1.2,-0.91l0.546,-0.465l0.18,-0.144l0.208,-0.184c0,0 0.007,-0.008 0.012,-0.01c0.002,-0.001 0.005,-0.003 0.005,-0.003c0,0 0.007,-0.012 0.015,-0.014c0.001,-0 0.001,-0.001 0.001,-0.002c0.001,-0.001 0.002,-0.001 0.003,-0.002c0.002,-0.002 0.005,-0.004 0.008,-0.006c0.004,-0.004 0.009,-0.007 0.012,-0.01c0.01,-0.011 0.019,-0.019 0.019,-0.019l0.032,-0.028c0,0 0.009,-0.007 0.009,-0.007c-0.003,-0.006 0.012,0.013 0.011,0.009c-0.009,-0.038 0.046,-0.05 0.059,-0.066c0.023,-0.028 0.062,-0.057 0.084,-0.084c0.033,-0.042 0.106,-0.127 0.19,-0.16c0.005,-0.002 -0.001,-0.015 0.004,-0.017c0.004,-0.001 0.02,0.005 0.02,0.005c0,0 -0.012,-0.025 0.005,-0.026c0.007,-0 0.014,-0.014 0.014,-0.014l0.011,-0.008c0,0 0.04,-0.075 0.085,-0.075c0.125,0 0.334,0.111 0.233,-0.106c-0.101,-0.217 0.544,-0.347 0.443,-0.564Z" style="fill:#b0dad6;"/><path d="M390.5,514.089c16.312,-0.074 16.324,-0.164 17.093,0.019c1.111,0.265 1.234,1.181 1.254,1.326c0.083,0.615 0.011,88.747 0.012,90.064c0.002,3.061 0.7,4.352 -2.352,4.388c-0.977,0.011 -33.126,-0.002 -36.007,-0.003c-27.705,-0.012 -28.115,0.155 -32.999,-1.381c-14.526,-4.569 -19.08,-18.102 -19.235,-24.996c-0.107,-4.768 -0.029,-45.085 -0.022,-49.006c0.004,-2.234 -1.665,-16.8 12.221,-20.144c1.46,-0.352 7.898,-0.275 60.035,-0.266Z" style="fill:#fec5a4;"/><path d="M488.501,514.071c4.5,0.003 4.485,0.017 8.999,0.022c1.144,0.001 4.91,-0.009 5,-0.013c3.192,-0.141 2.636,1.225 2.62,4.416c-0.035,6.88 0.035,6.874 0.001,86.001c-0.002,3.922 0.048,3.919 0.028,3.989c-0.474,1.65 -0.914,1.396 -2.643,1.405c-9.894,0.05 -69.927,-0.007 -76.008,-0.013c-3.026,-0.003 -4.311,0.655 -4.313,-2.376c-0.005,-7.365 -0.062,-91.652 0.021,-92.059c0.312,-1.524 0.729,-1.339 2.284,-1.374c4.664,-0.104 58.89,-0.007 64.011,0.002Z" style="fill:#fec5a4;"/><path d="M570.359,514.528c-0.474,2.475 -0.444,2.467 -1.111,4.902c-1,3.647 -2.236,12.527 -2.278,13.094c-0.071,0.956 -0.467,6.258 -0.63,11.97c-0.099,3.488 0.317,8.321 0.585,12.984c0.037,0.642 0.126,2.204 1.038,7.967c0.02,0.128 1.317,6.575 1.455,7.078c0.043,0.156 0.461,1.682 0.557,1.949c0.7,1.956 0.724,1.955 0.71,2.077c-0.102,0.865 -1.155,0.398 -1.25,0.356c-0.489,-0.217 -2.068,-2.193 -3.262,-2.914c-5.643,-3.403 -11.835,-4.546 -15.724,-3.707c-3.541,0.764 -7.661,1.553 -13.738,7.433c-1.859,1.799 -4.522,4.129 -2.171,7.752c1.089,1.678 4.478,2.428 6.861,0.875c4.378,-2.854 8.26,-8.204 15.995,-5.532c4.281,1.479 5.725,3.692 8.349,5.294c2.559,1.563 4.355,0.458 4.674,0.261c0.065,-0.04 0.958,-1.032 2.104,-0.927c2.038,0.188 -0.518,2.267 11.238,22.977c-0.235,0.299 0.053,0.827 -0.182,1.125c-0.278,0.353 -1.898,0.345 -2.066,0.345c-25.51,-0.115 -61.142,0.182 -62.116,-0.173c-1.185,-0.432 -0.852,-3.063 -0.854,-5.215c-0.07,-80.05 0.131,-80.041 0.067,-87.001c-0.017,-1.85 -0.771,-3.39 2.889,-3.401c42.334,-0.12 42.332,0.097 46.011,-0.011c1.461,-0.043 1.443,0.041 2.851,0.44Z" style="fill:#fec6a5;"/><path d="M450.517,402.945c0.338,0.033 0.678,0.038 1.015,0.071c6.497,0.634 5.364,7.562 17.04,14.359c13.163,7.662 27.786,5.487 33.92,3.105c13.965,-5.423 16.159,-11.63 19.14,-14.86c2.987,-3.236 6.662,-3.369 9.191,-1.58c5.427,3.84 2.896,8.833 -1.807,15.078c-2.173,2.885 -8.935,9.51 -17.481,13.455c-18.507,8.545 -35.081,3.689 -38.007,2.832c-9.512,-2.787 -13.866,-6.517 -16.034,-7.9c-2.462,-1.571 -8.883,-7.99 -11.059,-11.968c-1.334,-2.439 -3.973,-6.367 -0.305,-10.377c1.945,-2.127 3.329,-1.97 4.385,-2.216Z" style="fill:#1d686a;"/><path d="M396.113,170.502c0.021,-4.598 -0.555,-11.358 3.553,-17.901c0.558,-0.889 4.339,-6.912 10.797,-7.462c5.891,-0.501 9.004,1.734 10.053,2.336c2.716,1.559 5.123,5.462 5.488,6.262c2.867,6.29 2.907,14.481 2.913,15.764c0.015,3.06 0.65,4.335 -2.414,4.358c-2.24,0.017 -17.984,0.133 -28.006,-0.006c-2.498,-0.035 -2.307,-0.863 -2.384,-3.351Z" style="fill:#fdf6e9;"/><path d="M596.094,166.496c0.058,-3.788 -0.148,-5.996 1.994,-11.154c2.988,-7.192 8.254,-9.143 9.496,-9.617c2.839,-1.083 8.167,-0.938 11.747,1.079c3.521,1.983 5.172,4.298 6.859,7.835c1.774,3.719 2.74,10.942 2.69,16.862c-0.023,2.721 -1.158,2.382 -6.382,2.362c-24.998,-0.095 -25.177,0.276 -25.935,-0.434c-0.678,-0.635 -0.486,-3.695 -0.47,-6.934Z" style="fill:#fef6e9;"/><path d="M448.474,378.952c-1.445,-0.13 -7.511,-0.53 -13.205,-5.164c-12.745,-10.374 -5.823,-16.657 -1.74,-16.946c4.772,-0.337 6.223,2.581 8.141,4.485c4.98,4.942 11.212,3.774 14.665,1.859c2.172,-1.204 2.076,-1.338 3.664,-3.267c4.042,-4.911 11.284,-3.753 12.703,1.519c1.445,5.366 -8.587,18.445 -24.228,17.513Z" style="fill:#1c686b;"/><path d="M527.505,379.06c-3.361,-0.189 -3.736,-0.273 -4.054,-0.345c-7.635,-1.726 -11.778,-5.598 -13.172,-6.988c-11.593,-11.558 1.19,-19.348 7.312,-12.305c1.068,1.229 0.96,1.287 1.311,1.724c0.487,0.607 4.049,3.704 8.592,3.752c6.425,0.068 9.346,-4.293 10.728,-5.67c6.452,-6.43 16.245,0.619 9.521,9.443c-7.777,10.207 -17.728,10.338 -20.239,10.389Z" style="fill:#1c686a;"/><path d="M365.52,577.961c0.338,-0.03 0.679,-0.028 1.018,-0.058c1.039,-0.093 5.391,-0.484 11.731,-5.689c5.722,-4.697 9.082,0.869 8.861,3.261c-0.32,3.452 -3.748,5.684 -8.394,8.429c-7.746,4.576 -16.087,4.034 -17.276,3.902c-10.108,-1.118 -16.458,-6.888 -17.003,-7.248c-4.102,-2.708 -3.923,-6.338 -2.753,-7.916c3.843,-5.183 8.667,0.239 9.748,0.925c5.088,3.228 7.393,4.682 14.068,4.394Z" style="fill:#1c6f6f;"/><path d="M454.501,582.029c-5.556,-0.145 -5.552,-0.078 -6.033,-0.117c-4.55,-0.364 -5.894,-4.755 -4.675,-7.262c1.699,-3.494 6.235,-2.861 6.707,-2.86c2.239,0.002 27.548,0.028 27.987,0.039c4.981,0.127 6.189,5.021 4.644,7.449c-2.129,3.345 -5.557,2.625 -6.634,2.662c-1.759,0.061 -1.752,0.019 -21.996,0.088Z" style="fill:#1c6e6e;"/><path d="M454.073,548.504c-0.145,1.005 0.112,2.942 -2.261,5.299c-5.789,5.75 -14.222,-4.372 -7.654,-10.65c3.164,-3.024 8.918,-1.476 9.788,4.29c0.053,0.352 0.074,0.709 0.127,1.061Z" style="fill:#1b6c6d;"/><path d="M483.802,551.617c-0.709,1.329 -0.535,1.458 -1.683,2.433c-3.524,2.993 -9.083,0.877 -9.88,-4.509c-0.478,-3.229 1.774,-8.626 7.217,-7.8c3.667,0.557 5.536,5.283 4.718,8.684c-0.097,0.404 -0.274,0.787 -0.371,1.191Z" style="fill:#1b6b6d;"/><path d="M372.905,547.53c0.393,-1.662 0.198,-1.73 0.881,-2.848c2.723,-4.452 8.701,-3.992 10.567,0.878c2.709,7.069 -4.527,12.809 -9.228,8.335c-2.659,-2.531 -2.237,-4.619 -2.22,-6.365Z" style="fill:#1b6d6d;"/><path d="M546.953,548.489c-0.131,1.312 0.139,3.114 -2.148,5.331c-6.036,5.851 -13.984,-4.622 -7.621,-10.652c3.401,-3.223 9.041,-1.104 9.703,4.271c0.043,0.348 0.024,0.702 0.067,1.05Z" style="fill:#1c6d6d;"/><path d="M341.951,548.508c0.052,-0.354 0.076,-0.711 0.128,-1.065c1.055,-7.182 9.17,-7.466 11.366,-1.92c2.936,7.414 -5.535,13.861 -10.281,7.195c-1.322,-1.857 -1.193,-4.046 -1.213,-4.21Z" style="fill:#1b6c6d;"/></g></svg>